<svg xmlns="http://www.w3.org/2000/svg" width="23.695" height="23.695" viewBox="0 0 23.695 23.695"><defs><style>.a{fill:#f4b50b;}</style></defs><path class="a" d="M23.695,11.847A11.847,11.847,0,1,0,3.845,20.575l-.011.01.384.324c.025.021.052.038.077.059.2.169.416.33.631.486.07.05.14.1.211.15q.345.238.707.451L6,22.146c.264.15.534.292.81.422l.061.028A11.741,11.741,0,0,0,9.74,23.5l.079.014c.312.054.627.1.947.126l.117.009c.318.026.639.043.965.043s.641-.017.957-.042l.12-.009q.475-.043.938-.124l.081-.015a11.74,11.74,0,0,0,2.825-.885l.1-.045q.4-.187.78-.4l.189-.109c.232-.137.46-.279.681-.431.08-.054.158-.112.237-.168.189-.136.375-.277.555-.423.04-.032.083-.06.122-.093l.394-.329-.012-.01A11.817,11.817,0,0,0,23.695,11.847Zm-22.833,0A10.986,10.986,0,1,1,19.133,20.06a3.229,3.229,0,0,0-.385-.231L15.1,18.005a.955.955,0,0,1-.531-.859V15.873c.084-.1.174-.222.266-.352a8.779,8.779,0,0,0,1.127-2.207,1.564,1.564,0,0,0,.9-1.417V10.369a1.567,1.567,0,0,0-.382-1.021V7.338a3.474,3.474,0,0,0-.811-2.526,4.849,4.849,0,0,0-3.82-1.365,4.851,4.851,0,0,0-3.82,1.365,3.475,3.475,0,0,0-.811,2.526V9.348a1.57,1.57,0,0,0-.382,1.021V11.9a1.567,1.567,0,0,0,.577,1.215,8.1,8.1,0,0,0,1.333,2.752v1.247a.961.961,0,0,1-.5.844L4.837,19.812a3.114,3.114,0,0,0-.324.205A10.959,10.959,0,0,1,.862,11.847Z" transform="translate(0 0)"/></svg>