<svg xmlns="http://www.w3.org/2000/svg" width="28" height="28" viewBox="0 0 28 28"><defs><style>.a{fill:none;}.b{fill:#f4b50b;}</style></defs><rect class="a" width="28" height="28"/><g transform="translate(-31.4 2)"><g transform="translate(35.4)"><path class="b" d="M47.715,300.4H42.772a7.383,7.383,0,0,0-7.372,7.372H55.108A7.43,7.43,0,0,0,47.715,300.4Z" transform="translate(-35.4 -284.26)"/><path class="b" d="M129.4,91.874a1.591,1.591,0,0,1,1.032.365h1.784a5.112,5.112,0,1,0-8.811-3.525,5.125,5.125,0,0,0,2.622,4.47,1.674,1.674,0,0,1,1.612-1.311Z" transform="translate(-118.672 -79.108)"/><path class="b" d="M75.15,10.036a2.4,2.4,0,0,0,.688,1.4,2.593,2.593,0,0,0,1.053.623.964.964,0,0,1-.021-.236V7.651a1.046,1.046,0,0,1,.021-.258,2.3,2.3,0,0,0-1.053.623l-.086.086V7.93a7.372,7.372,0,0,1,.107-1.2,5.142,5.142,0,0,1,.322-1.161,5.109,5.109,0,0,1,.516-1.1,6.254,6.254,0,0,1,.688-.989.163.163,0,0,0,.043-.086.635.635,0,0,0,.516-.172,6.693,6.693,0,0,1,9.456,0,.611.611,0,0,0,.516.172c.021.021.021.064.043.086a6.257,6.257,0,0,1,.688.989,8.566,8.566,0,0,1,.516,1.1,10.628,10.628,0,0,1,.322,1.182,7.372,7.372,0,0,1,.107,1.2v.172c-.022-.043-.065-.064-.086-.086a2.593,2.593,0,0,0-1.053-.623,1.045,1.045,0,0,1,.022.258V11.82a.8.8,0,0,1-.022.236,1.89,1.89,0,0,0,.322-.107V13.3a2.165,2.165,0,0,1-.043.408.6.6,0,0,1-.107.236.468.468,0,0,1-.172.107,1.089,1.089,0,0,1-.279.043H84.2a.714.714,0,0,0-.623-.365H81.813a.692.692,0,0,0-.688.688.711.711,0,0,0,.709.688H83.6a.741.741,0,0,0,.623-.365h4.148a1.257,1.257,0,0,0,.408-.086,1.145,1.145,0,0,0,.43-.279,1.419,1.419,0,0,0,.258-.473,2.566,2.566,0,0,0,.086-.623V11.5l.064-.064a2.4,2.4,0,0,0,.688-1.4c.021-.021.043-.021.043-.043a.4.4,0,0,0,.107-.258V7.952a9.031,9.031,0,0,0-.107-1.332c-.129-.451-.236-.881-.387-1.311a6.4,6.4,0,0,0-.58-1.225,6.333,6.333,0,0,0-.774-1.1A.214.214,0,0,0,88.5,2.9a.654.654,0,0,0-.172-.58A7.89,7.89,0,0,0,82.715,0a7.975,7.975,0,0,0-5.631,2.321.654.654,0,0,0-.172.58.377.377,0,0,0-.107.086,6.333,6.333,0,0,0-.774,1.1,10.7,10.7,0,0,0-.58,1.225,6.928,6.928,0,0,0-.344,1.311A6.829,6.829,0,0,0,75,7.952V9.736a.356.356,0,0,0,.107.258C75.129,10.015,75.15,10.015,75.15,10.036Z" transform="translate(-72.872 0)"/></g></g></svg>