<svg xmlns="http://www.w3.org/2000/svg" width="11.517" height="15.452" viewBox="0 0 11.517 15.452"><defs><style>.a{fill:#898888;}</style></defs><g transform="translate(-52.016)"><g transform="translate(52.016)"><path class="a" d="M74.561,110.412a.778.778,0,0,0,.777.745H82.6a.778.778,0,0,0,.777-.745l.518-10.944h-9.85Zm6.049-8.226a.316.316,0,0,1,.316-.316h.505a.316.316,0,0,1,.316.316v6.253a.316.316,0,0,1-.316.316h-.505a.316.316,0,0,1-.316-.316Zm-2.211,0a.316.316,0,0,1,.316-.316h.505a.316.316,0,0,1,.316.316v6.253a.316.316,0,0,1-.316.316h-.505a.316.316,0,0,1-.316-.316v-6.253Zm-2.211,0a.316.316,0,0,1,.316-.316h.505a.316.316,0,0,1,.316.316v6.253a.316.316,0,0,1-.316.316H76.5a.316.316,0,0,1-.316-.316Z" transform="translate(-73.21 -95.705)"/><path class="a" d="M63.045.8H59.7V.163A.163.163,0,0,0,59.533,0H56.016a.163.163,0,0,0-.163.163V.8H52.5a.488.488,0,0,0-.488.488V2.817H63.533V1.284A.488.488,0,0,0,63.045.8Z" transform="translate(-52.016)"/></g></g></svg>