<svg xmlns="http://www.w3.org/2000/svg" width="19.391" height="25.265" viewBox="0 0 19.391 25.265"><defs><style>.a{fill:#cd2a00;}.b{fill:#d8d7da;}.c{fill:#ff3501;}.d{fill:#fff;}</style></defs><g transform="translate(-56.53)"><path class="a" d="M243.15,0V5.424a4.156,4.156,0,0,1,0,8.313V25.265l7.608-9.565a9.59,9.59,0,0,0,2.088-6A9.707,9.707,0,0,0,243.15,0Z" transform="translate(-176.924)"/><path class="b" d="M247.306,108.556a4.161,4.161,0,0,0-4.156-4.156v8.313A4.161,4.161,0,0,0,247.306,108.556Z" transform="translate(-176.924 -98.976)"/><path class="c" d="M62.069,9.58a4.161,4.161,0,0,1,4.156-4.156V0a9.707,9.707,0,0,0-9.7,9.7A9.59,9.59,0,0,0,58.62,15.7l7.605,9.563V13.736A4.161,4.161,0,0,1,62.069,9.58Z"/><path class="d" d="M163.15,108.556a4.161,4.161,0,0,0,4.156,4.156V104.4A4.161,4.161,0,0,0,163.15,108.556Z" transform="translate(-101.081 -98.976)"/></g></svg>