<svg xmlns="http://www.w3.org/2000/svg" width="33.651" height="27.948" viewBox="0 0 33.651 27.948"><defs><style>.a{fill:#c2c5c6;}.b{fill:#fff;}.c{fill:#afafaf;stroke:#fff;stroke-width:2px;}.d{stroke:none;}.e{fill:none;}</style></defs><g transform="translate(-3888.448 -926.646)"><circle class="a" cx="13.974" cy="13.974" r="13.974" transform="translate(3888.448 926.646)"/><g transform="translate(3897.089 934.807)"><g transform="translate(0 0)"><path class="b" d="M10.985.319A1.09,1.09,0,0,0,9.427.335L7.111,2.748,1.46.878.274,2.064l4.711,2.9L2.6,7.448,1.072,7.2,0,8.27l2.247.787L3.034,11.3l1.072-1.072L3.856,8.7,6.339,6.32l2.9,4.711,1.186-1.186L8.556,4.193l2.413-2.316A1.09,1.09,0,0,0,10.985.319Z" transform="translate(0 0)"/></g></g><g class="c" transform="translate(3908.411 940.905)"><circle class="d" cx="6.844" cy="6.844" r="6.844"/><circle class="e" cx="6.844" cy="6.844" r="5.844"/></g><g transform="translate(3912.403 943.549)"><g transform="translate(0)"><path class="b" d="M92.213,4.23a3.015,3.015,0,0,0-1.1-.466l-.383-.083V2.065a.048.048,0,0,0,.033.017.015.015,0,0,1,.017.017.88.88,0,0,1,.516.8h1.282a1.878,1.878,0,0,0-.749-1.532A2.582,2.582,0,0,0,90.731.9V0H89.548V.866a2.334,2.334,0,0,0-1.316.533A1.839,1.839,0,0,0,87.6,2.831a1.566,1.566,0,0,0,.649,1.382,3.94,3.94,0,0,0,1.3.466V6.411a1.055,1.055,0,0,1-.533-.316,1.173,1.173,0,0,1-.25-.633H87.5a1.867,1.867,0,0,0,.716,1.549,2.778,2.778,0,0,0,1.332.516v.666h1.182V7.544a2.654,2.654,0,0,0,1.382-.55,1.865,1.865,0,0,0,.666-1.465A1.561,1.561,0,0,0,92.213,4.23ZM89.548,3.4a2.054,2.054,0,0,1-.4-.15.547.547,0,0,1-.316-.516.647.647,0,0,1,.316-.583,1.665,1.665,0,0,1,.4-.167ZM90.93,6.378a.875.875,0,0,1-.2.05V4.946a2.349,2.349,0,0,1,.483.2.567.567,0,0,1,.283.5A.738.738,0,0,1,90.93,6.378Z" transform="translate(-87.5)"/></g></g></g></svg>