<svg xmlns="http://www.w3.org/2000/svg" width="21.711" height="18.613" viewBox="0 0 21.711 18.613"><defs><style>.a{fill:#5c5b5b;}</style></defs><g transform="translate(0 -36.507)"><path class="a" d="M20.257,40.366a9.821,9.821,0,0,0-3.95-2.823,14.084,14.084,0,0,0-5.452-1.036,14.406,14.406,0,0,0-4.216.612,11.792,11.792,0,0,0-3.465,1.654A8.265,8.265,0,0,0,.86,41.25,5.771,5.771,0,0,0,0,44.261a5.879,5.879,0,0,0,1.1,3.4,8.9,8.9,0,0,0,3,2.665,7.7,7.7,0,0,1-.315.921q-.182.436-.327.715a4.922,4.922,0,0,1-.394.618q-.248.339-.375.478l-.418.46q-.291.321-.375.418a.847.847,0,0,0-.1.109l-.085.1-.073.109q-.061.091-.055.115a.323.323,0,0,1-.024.121.16.16,0,0,0,.006.146v.012a.609.609,0,0,0,.212.351.475.475,0,0,0,.37.109,9.1,9.1,0,0,0,1.381-.266A13.242,13.242,0,0,0,9.1,51.917a16.576,16.576,0,0,0,1.757.1,14.08,14.08,0,0,0,5.452-1.036,9.819,9.819,0,0,0,3.95-2.823,5.944,5.944,0,0,0,0-7.79Z"/></g></svg>