<svg xmlns="http://www.w3.org/2000/svg" width="17.356" height="20.803" viewBox="0 0 17.356 20.803"><defs><style>.a{opacity:0.7;}.b{fill:#0b0b0b;}</style></defs><g class="a"><path class="b" d="M92.042,10.021a4.848,4.848,0,0,0,3.543-1.468A4.849,4.849,0,0,0,97.052,5.01a4.849,4.849,0,0,0-1.468-3.543,5.009,5.009,0,0,0-7.085,0A4.848,4.848,0,0,0,87.031,5.01,4.848,4.848,0,0,0,88.5,8.553,4.85,4.85,0,0,0,92.042,10.021ZM89.361,2.33a3.79,3.79,0,0,1,5.361,0A3.622,3.622,0,0,1,95.833,5.01a3.622,3.622,0,0,1-1.111,2.681,3.79,3.79,0,0,1-5.361,0A3.622,3.622,0,0,1,88.25,5.01,3.622,3.622,0,0,1,89.361,2.33Zm0,0" transform="translate(-83.495)"/><path class="b" d="M17.314,253.264a12.376,12.376,0,0,0-.169-1.314,10.355,10.355,0,0,0-.323-1.322,6.528,6.528,0,0,0-.543-1.233,4.646,4.646,0,0,0-.819-1.068,3.612,3.612,0,0,0-1.177-.739,4.067,4.067,0,0,0-1.5-.272,1.525,1.525,0,0,0-.814.345c-.244.159-.53.343-.848.547a4.861,4.861,0,0,1-1.1.484,4.262,4.262,0,0,1-2.685,0,4.846,4.846,0,0,1-1.1-.483c-.316-.2-.6-.386-.849-.547a1.523,1.523,0,0,0-.814-.345,4.062,4.062,0,0,0-1.5.272,3.609,3.609,0,0,0-1.177.739,4.647,4.647,0,0,0-.819,1.068,6.54,6.54,0,0,0-.543,1.233A10.381,10.381,0,0,0,.21,251.95a12.292,12.292,0,0,0-.169,1.315c-.028.4-.042.811-.042,1.228a3.454,3.454,0,0,0,1.026,2.613,3.693,3.693,0,0,0,2.644.964H13.686a3.693,3.693,0,0,0,2.644-.964,3.453,3.453,0,0,0,1.026-2.614C17.356,254.074,17.342,253.66,17.314,253.264Zm-1.825,2.959a2.487,2.487,0,0,1-1.8.628H3.67a2.487,2.487,0,0,1-1.8-.628,2.256,2.256,0,0,1-.647-1.73c0-.39.013-.775.039-1.144a11.087,11.087,0,0,1,.152-1.184A9.156,9.156,0,0,1,1.694,251a5.325,5.325,0,0,1,.442-1,3.445,3.445,0,0,1,.6-.789,2.4,2.4,0,0,1,.783-.487,2.805,2.805,0,0,1,.96-.185c.043.023.119.066.242.146.251.163.539.35.859.554a6.041,6.041,0,0,0,1.378.616,5.48,5.48,0,0,0,3.435,0,6.046,6.046,0,0,0,1.379-.616c.327-.209.608-.39.858-.553.123-.08.2-.124.242-.146a2.807,2.807,0,0,1,.96.185,2.4,2.4,0,0,1,.783.487,3.435,3.435,0,0,1,.6.789,5.308,5.308,0,0,1,.442,1,9.135,9.135,0,0,1,.284,1.165,11.179,11.179,0,0,1,.152,1.184h0c.026.368.039.753.039,1.144A2.256,2.256,0,0,1,15.489,256.223Zm0,0" transform="translate(0 -237.268)"/></g></svg>