<svg xmlns="http://www.w3.org/2000/svg" viewBox="0 0 26.996 27.078">
  <defs>
    <style>
      .cls-1 {
        fill: #666;
      }
    </style>
  </defs>
  <g id="clock" transform="translate(0)">
    <path id="Path_162" data-name="Path 162" class="cls-1" d="M13.5,952.4A13.539,13.539,0,1,0,27,965.939,13.519,13.519,0,0,0,13.5,952.4Zm0,1.231A12.308,12.308,0,1,1,1.227,965.939,12.286,12.286,0,0,1,13.5,953.631ZM13.13,957.6a.629.629,0,0,0-.552.615v9.231a.616.616,0,0,0,.614.615h6.135a.615.615,0,0,0,0-1.231H13.8v-8.616a.616.616,0,0,0-.614-.615Z" transform="translate(0 -952.4)"/>
  </g>
</svg>
