<svg xmlns="http://www.w3.org/2000/svg" width="12.123" height="12.533" viewBox="0 0 12.123 12.533"><defs><style>.a{fill:#fff;}</style></defs><g transform="translate(-0.489)"><path class="a" d="M10.929,19.1v2.863H2.172V19.1H.489v3.7a.841.841,0,0,0,.843.841H11.77a.841.841,0,0,0,.843-.841V19.1Z" transform="translate(0 -11.118)"/><path class="a" d="M11.051,7.7,8.641,4.792s-.367-.346.031-.346H10.03V.207S9.976,0,10.287,0H12.2c.224,0,.219.174.219.174V4.358h1.253c.482,0,.119.362.119.362s-2.05,2.722-2.336,3.007A.267.267,0,0,1,11.051,7.7Z" transform="translate(-4.654 0)"/></g></svg>