<svg xmlns="http://www.w3.org/2000/svg" width="20.443" height="19.792" viewBox="0 0 20.443 19.792"><defs><style>.a{fill:#e3e3e3;}</style></defs><g transform="translate(-1.39 -1.346)"><path class="a" d="M20.187,14.547a.975.975,0,0,0-.08-1.395L10.971,5.157a1.139,1.139,0,0,0-1.486.017l-9.167,8.4a.969.969,0,0,0-.044,1.393l.23.239a1,1,0,0,0,1.376.105l.685-.614v8.983a1,1,0,0,0,1,1H7.135a1,1,0,0,0,1-1V17.4H12.69v6.284a.942.942,0,0,0,.937,1h3.787a1,1,0,0,0,1-1V14.828l.423.371c.233.2.723.041,1.093-.367Z" transform="translate(1.39 -3.545)"/></g></svg>