<svg xmlns="http://www.w3.org/2000/svg" width="15.668" height="25" viewBox="0 0 15.668 25"><g transform="translate(-95.555)"><g transform="translate(101.027 23.367)"><g transform="translate(0)"><path d="M207.923,478.592a.488.488,0,0,1,.635.272.571.571,0,0,0,.529.35h1.784a.571.571,0,0,0,.529-.35.488.488,0,1,1,.906.363,1.535,1.535,0,0,1-1.435.963h-1.784a1.535,1.535,0,0,1-1.435-.963A.488.488,0,0,1,207.923,478.592Z" transform="translate(-207.616 -478.556)"/></g></g><g transform="translate(95.555)"><g transform="translate(0)"><path d="M95.6,20.887a2.409,2.409,0,0,1,1.156-1.625,2.426,2.426,0,0,1-.868-2.246,6.156,6.156,0,0,1,3.414-4.63,5.6,5.6,0,0,1,2.559-9.221,2.112,2.112,0,0,1-.495-1.364,1.8,1.8,0,0,1,1.8-1.8h0a1.635,1.635,0,0,1,1.057.367A1.333,1.333,0,0,1,104.7,1.4a.488.488,0,1,1-.977,0,.361.361,0,0,0-.134-.288.662.662,0,0,0-.428-.137h0a.825.825,0,0,0-.824.824,1.152,1.152,0,0,0,1.152,1.152h0l.035,0a5.6,5.6,0,0,1,3.947,9.431,6.156,6.156,0,0,1,3.414,4.63,2.426,2.426,0,0,1-.868,2.246,2.41,2.41,0,0,1,.688,3.57l-1.046,1.336a2.177,2.177,0,0,1-1.715.83,2.154,2.154,0,0,1-1.079-.288,2.18,2.18,0,0,1-.928-2.691l.634-1.574a2.406,2.406,0,0,1,.148-.3h-3.581a.488.488,0,0,1,0-.977h4.51V18.136a.241.241,0,0,0-.24-.24h-8.05a.241.241,0,0,0-.24.24v1.1a2.409,2.409,0,0,1,1.077,1.212l.634,1.574a2.18,2.18,0,0,1-.928,2.691A2.154,2.154,0,0,1,98.828,25a2.177,2.177,0,0,1-1.715-.83l-1.046-1.336A2.409,2.409,0,0,1,95.6,20.887ZM108.016,8.556a4.627,4.627,0,1,0-4.627,4.627A4.633,4.633,0,0,0,108.016,8.556Zm-.533,12.253-.634,1.574a1.194,1.194,0,0,0,2.047,1.182l1.046-1.336a1.434,1.434,0,1,0-2.459-1.419Zm-8.123-4.867a.488.488,0,0,1,.488.488v.488h7.077v-.488a.488.488,0,0,1,.977,0v.591a1.218,1.218,0,0,1,.729,1.114v.69a1.455,1.455,0,0,0,1.294-1.664,5.155,5.155,0,0,0-3.258-4.063,5.591,5.591,0,0,1-6.557,0,5.155,5.155,0,0,0-3.258,4.063,1.455,1.455,0,0,0,1.294,1.664v-.69a1.218,1.218,0,0,1,.725-1.113v-.592A.488.488,0,0,1,99.361,15.942Zm-2.525,6.287,1.046,1.336a1.194,1.194,0,0,0,2.047-1.182l-.634-1.574a1.434,1.434,0,1,0-2.458,1.419Z" transform="translate(-95.555)"/></g></g><g transform="translate(100.717 19.165)"><g transform="translate(0)"><path d="M290.863,392.643a.488.488,0,1,1-.143.345A.492.492,0,0,1,290.863,392.643Z" transform="translate(-290.72 -392.5)"/></g></g><g transform="translate(101.862 10.115)"><g transform="translate(0)"><path d="M224.907,207.26a.488.488,0,0,1,.687.072.848.848,0,0,0,1.319,0,.488.488,0,1,1,.759.615,1.824,1.824,0,0,1-2.836,0A.488.488,0,0,1,224.907,207.26Z" transform="translate(-224.726 -207.151)"/></g></g><g transform="translate(104.48 7.879)"><g transform="translate(0)"><path d="M195.041,161.689a1.137,1.137,0,0,1,1.607,0,.488.488,0,0,1-.691.691.16.16,0,0,0-.226,0,.488.488,0,0,1-.691-.691Z" transform="translate(-194.898 -161.357)"/></g></g><g transform="translate(100.406 7.879)"><g transform="translate(0)"><path d="M278.483,161.689a1.138,1.138,0,0,1,1.607,0,.488.488,0,1,1-.691.691.16.16,0,0,0-.226,0,.488.488,0,0,1-.691-.691Z" transform="translate(-278.34 -161.356)"/></g></g></g></svg>