<svg xmlns="http://www.w3.org/2000/svg" width="15.513" height="15.513" viewBox="0 0 15.513 15.513"><defs><style>.a{fill:#1488c8;}</style></defs><path class="a" d="M7.756,0a7.757,7.757,0,1,0,7.757,7.756A7.757,7.757,0,0,0,7.756,0ZM9.371,12.021q-.6.236-.955.36a2.52,2.52,0,0,1-.829.124,1.652,1.652,0,0,1-1.127-.354,1.142,1.142,0,0,1-.4-.9,3.261,3.261,0,0,1,.03-.433c.02-.147.053-.313.1-.5l.5-1.765c.044-.169.082-.33.112-.48a2.128,2.128,0,0,0,.045-.416A.64.64,0,0,0,6.7,7.191a.791.791,0,0,0-.534-.132,1.4,1.4,0,0,0-.4.059c-.135.041-.251.079-.347.116l.132-.544q.491-.2.939-.342A2.774,2.774,0,0,1,7.341,6.2a1.621,1.621,0,0,1,1.111.348,1.156,1.156,0,0,1,.39.9q0,.115-.027.405a2.711,2.711,0,0,1-.1.533l-.5,1.76c-.041.141-.077.3-.11.483a2.556,2.556,0,0,0-.048.411.59.59,0,0,0,.157.478.878.878,0,0,0,.543.127,1.575,1.575,0,0,0,.411-.064,2.337,2.337,0,0,0,.332-.112ZM9.283,4.878a1.186,1.186,0,0,1-.837.323,1.2,1.2,0,0,1-.84-.323,1.031,1.031,0,0,1-.35-.783,1.042,1.042,0,0,1,.35-.785,1.19,1.19,0,0,1,.84-.326,1.177,1.177,0,0,1,.837.326,1.058,1.058,0,0,1,0,1.569Z"/></svg>