<svg xmlns="http://www.w3.org/2000/svg" width="48.272" height="31.563" viewBox="0 0 48.272 31.563"><defs><style>.a{fill:#ed7161;}.b{fill:#fff;}</style></defs><g transform="translate(-1.694 -9.469)"><g transform="translate(1.694 -80.986)"><g transform="translate(0 90.455)"><g transform="translate(0 0)"><path d="M39.737,90.455H.808A.808.808,0,0,0,0,91.263v21.28a4.136,4.136,0,0,0,4.131,4.131H36.414a4.136,4.136,0,0,0,4.131-4.131V91.263A.808.808,0,0,0,39.737,90.455Zm-.808,22.088a2.518,2.518,0,0,1-2.516,2.516H4.131a2.518,2.518,0,0,1-2.516-2.516V93.025l18.145,14.855a.808.808,0,0,0,1.023,0L34.824,96.411A.808.808,0,1,0,33.8,95.16L20.273,106.211,3,92.07H38.93Z" transform="translate(0 -90.455)"/></g></g><g transform="translate(35.537 93.12)"><g transform="translate(0 0)"><path d="M450.44,124.408a.808.808,0,0,0-1.136-.115l-.242.2a.808.808,0,1,0,1.022,1.251l.242-.2A.808.808,0,0,0,450.44,124.408Z" transform="translate(-448.765 -124.111)"/></g></g></g><g transform="translate(33.231 23.933)"><circle class="a" cx="8.5" cy="8.5" r="8.5" transform="translate(-0.266 0.1)"/><path class="b" d="M45.52,39.508l2.53-2.53a.715.715,0,0,0-1.012-1.012l-2.53,2.53-2.53-2.53a.715.715,0,0,0-1.012,1.012l2.53,2.53-2.53,2.53a.715.715,0,1,0,1.012,1.012l2.53-2.53,2.53,2.53a.715.715,0,0,0,1.012-1.012Z" transform="translate(-36.296 -30.92)"/></g></g></svg>