<svg xmlns="http://www.w3.org/2000/svg" width="22" height="21.508" viewBox="0 0 22 21.508"><defs><style>.a{fill:#5c5b5b;}</style></defs><g transform="translate(0 -1.374)"><path class="a" d="M15.41,6.158V2.449a1.078,1.078,0,0,0-1.075-1.075H1.075A1.078,1.078,0,0,0,0,2.449v15.2a1.094,1.094,0,0,0,.573.95l8.171,4.229a.542.542,0,0,0,.788-.484V18.218h4.8a1.078,1.078,0,0,0,1.075-1.075V11.265H13.26V15.53a.528.528,0,0,1-.538.538H9.551V6.947A1.094,1.094,0,0,0,8.977,6L4.157,3.524h8.565a.528.528,0,0,1,.538.538V6.176h2.15Z"/><path class="a" d="M68.469,16.682l3.494,3.494a1.072,1.072,0,0,1,0,1.559l-3.494,3.494a1.093,1.093,0,0,1-1.577.018,1.143,1.143,0,0,1,.036-1.577L68.5,22.111h-6.11a1.06,1.06,0,0,1-.806-.358,1.217,1.217,0,0,1,.269-1.846,1.148,1.148,0,0,1,.538-.143H68.5S66.946,18.2,66.928,18.2a1.084,1.084,0,1,1,1.541-1.523Z" transform="translate(-50.299 -12.28)"/></g></svg>