<svg xmlns="http://www.w3.org/2000/svg" width="30.816" height="30.816" viewBox="0 0 30.816 30.816"><defs><style>.a{fill:#fff;}</style></defs><path class="a" d="M28.75,7.674a15.343,15.343,0,0,0-5.607-5.607A15.072,15.072,0,0,0,15.409,0,15.072,15.072,0,0,0,7.674,2.066,15.339,15.339,0,0,0,2.067,7.674,15.071,15.071,0,0,0,0,15.408a15.075,15.075,0,0,0,2.066,7.734A15.343,15.343,0,0,0,7.674,28.75a15.073,15.073,0,0,0,7.734,2.066,15.073,15.073,0,0,0,7.734-2.066,15.339,15.339,0,0,0,5.607-5.607,15.074,15.074,0,0,0,2.066-7.734A15.075,15.075,0,0,0,28.75,7.674Zm-3.331,8.637-1.825,1.826L16.331,25.4a1.308,1.308,0,0,1-1.806,0L12.7,23.573a1.26,1.26,0,0,1,0-1.806l3.792-3.791H6.42a1.3,1.3,0,0,1-1.284-1.284V14.124A1.3,1.3,0,0,1,6.42,12.84H16.492L12.7,9.048a1.309,1.309,0,0,1,0-1.806l1.826-1.826a1.31,1.31,0,0,1,1.806,0l7.262,7.263,1.825,1.826a1.308,1.308,0,0,1,0,1.806Z" transform="translate(0 0)"/></svg>