<svg xmlns="http://www.w3.org/2000/svg" width="83.363" height="47.045" viewBox="0 0 83.363 47.045">
  <g id="flaticon1567080185-svg" transform="translate(0 -105.648)">
    <path id="Path_45099" data-name="Path 45099" d="M83.363,134.261H56.057c.008-.272.014-.544.014-.817a25.382,25.382,0,0,0-.905-6.765h10.61v-5.156H53.012q-.412-.7-.875-1.357a13.612,13.612,0,0,0-7.877-5.672v-8.846H39.1v8.846a13.613,13.613,0,0,0-7.877,5.671q-.463.654-.875,1.357H17.587v5.156H28.2a25.375,25.375,0,0,0-.905,6.765c0,.273.006.545.014.817H0v5.156H10.417a4.3,4.3,0,0,0,8.421,0h9.154a21.213,21.213,0,0,0,3.234,7.305c2.728,3.85,6.441,5.971,10.456,5.971s7.728-2.12,10.456-5.971a21.215,21.215,0,0,0,3.234-7.305h9.153a4.3,4.3,0,0,0,8.421,0H83.363ZM41.682,147.537c-5,0-9.233-6.454-9.233-14.093s4.228-14.093,9.233-14.093,9.233,6.454,9.233,14.093S46.687,147.537,41.682,147.537Z" fill="#5c5b5b"/>
    <rect id="Rectangle_13422" data-name="Rectangle 13422" width="6.875" height="5.156" transform="translate(38.244 127.892)" fill="#5c5b5b"/>
  </g>
</svg>
