<svg xmlns="http://www.w3.org/2000/svg" width="19" height="18.988" viewBox="0 0 19 18.988"><defs><style>.a{fill:#5c5b5b;}</style></defs><g transform="translate(0 -0.188)"><g transform="translate(0 0.188)"><path class="a" d="M18.991,15.173a.918.918,0,0,1-.282.8l-2.675,2.655a1.506,1.506,0,0,1-.473.342,1.953,1.953,0,0,1-.573.181q-.02,0-.121.01t-.261.01a9.272,9.272,0,0,1-1.237-.131,9.4,9.4,0,0,1-2.092-.644,17.559,17.559,0,0,1-2.806-1.539,20.92,20.92,0,0,1-3.339-2.816A22.041,22.041,0,0,1,2.8,11.392,18.917,18.917,0,0,1,1.311,9.048,12.621,12.621,0,0,1,.466,7.1,10.351,10.351,0,0,1,.084,5.589a4.982,4.982,0,0,1-.08-1q.02-.362.02-.4A1.955,1.955,0,0,1,.2,3.617a1.507,1.507,0,0,1,.342-.473L3.222.47A.886.886,0,0,1,3.865.188a.75.75,0,0,1,.463.151A1.4,1.4,0,0,1,4.67.711L6.822,4.794a.979.979,0,0,1,.1.7,1.254,1.254,0,0,1-.342.644L5.6,7.127a.335.335,0,0,0-.07.131.5.5,0,0,0-.03.151,3.632,3.632,0,0,0,.362.965A8.863,8.863,0,0,0,6.6,9.551a13.065,13.065,0,0,0,1.428,1.6,13.323,13.323,0,0,0,1.609,1.438,9.292,9.292,0,0,0,1.177.754,3.127,3.127,0,0,0,.724.292l.251.05a.479.479,0,0,0,.131-.03.336.336,0,0,0,.131-.07L13.2,12.417a1.232,1.232,0,0,1,.845-.322,1.051,1.051,0,0,1,.543.121h.02l3.882,2.293A1.012,1.012,0,0,1,18.991,15.173Z" transform="translate(0 -0.188)"/></g></g></svg>