<svg xmlns="http://www.w3.org/2000/svg" width="11.729" height="14.504" viewBox="0 0 11.729 14.504"><g transform="translate(-46.155)"><g transform="translate(46.155)"><path d="M56.227,1.738H53.969a1.963,1.963,0,0,0-3.9,0H47.812a1.659,1.659,0,0,0-1.657,1.657V3.48A1.659,1.659,0,0,0,47.2,5.019v7.828A1.659,1.659,0,0,0,48.859,14.5H55.18a1.659,1.659,0,0,0,1.657-1.657V5.019A1.659,1.659,0,0,0,57.884,3.48V3.395A1.659,1.659,0,0,0,56.227,1.738ZM52.019.786a1.179,1.179,0,0,1,1.156.952H50.864A1.179,1.179,0,0,1,52.019.786Zm4.031,12.061a.872.872,0,0,1-.871.871H48.859a.872.872,0,0,1-.871-.871V5.137h8.063ZM57.1,3.48a.872.872,0,0,1-.871.871H47.812a.872.872,0,0,1-.871-.871V3.395a.872.872,0,0,1,.871-.871h8.415a.872.872,0,0,1,.871.871V3.48Z" transform="translate(-46.155)"/><path d="M158.468,254.781a.393.393,0,0,0,.393-.393v-4.424a.393.393,0,1,0-.786,0v4.424A.393.393,0,0,0,158.468,254.781Z" transform="translate(-154.71 -242.068)"/><path d="M228.538,254.781a.393.393,0,0,0,.393-.393v-4.424a.393.393,0,1,0-.786,0v4.424A.393.393,0,0,0,228.538,254.781Z" transform="translate(-222.674 -242.068)"/><path d="M298.607,254.781a.393.393,0,0,0,.393-.393v-4.424a.393.393,0,1,0-.786,0v4.424A.393.393,0,0,0,298.607,254.781Z" transform="translate(-290.636 -242.068)"/></g></g></svg>