<svg xmlns="http://www.w3.org/2000/svg" width="16.527" height="16" viewBox="0 0 16.527 16"><defs><style>.a{fill:#fff;}</style></defs><g transform="translate(0 -4.89)"><path class="a" d="M16.32,12.7a.788.788,0,0,0-.065-1.128L8.869,5.106a.921.921,0,0,0-1.2.014L.257,11.914A.784.784,0,0,0,.221,13.04l.186.194a.81.81,0,0,0,1.112.085l.554-.5v7.262a.806.806,0,0,0,.806.806H5.768a.806.806,0,0,0,.806-.806V15h3.685v5.08a.762.762,0,0,0,.757.806h3.062a.806.806,0,0,0,.806-.806V12.925l.342.3c.188.166.584.033.884-.3Z" transform="translate(0 0)"/></g></svg>