<svg xmlns="http://www.w3.org/2000/svg" width="13.642" height="24.945" viewBox="0 0 13.642 24.945"><defs><style>.a{fill:#e3e3e3;}</style></defs><g transform="translate(0)"><path class="a" d="M11.45,154H2.192A2.195,2.195,0,0,0,0,156.192v11.6a2.195,2.195,0,0,0,2.192,2.192v1.462H3.654v-1.462H9.988v1.462H11.45v-1.462a2.195,2.195,0,0,0,2.192-2.192v-11.6A2.195,2.195,0,0,0,11.45,154ZM4.872,166.083H3.41V157.9H4.872Zm5.359,0H8.77V157.9h1.462Zm0,0" transform="translate(0 -146.497)"/><path class="a" d="M71.462,2.923h3.9V6.041h1.462V0H70V6.041h1.462Zm0,0" transform="translate(-66.59)"/></g></svg>