<svg xmlns="http://www.w3.org/2000/svg" width="32.066" height="42.159" viewBox="0 0 32.066 42.159"><defs><style>.a{fill:#898888;}</style></defs><path class="a" d="M113.023,20.618c4.687,0,8.488-4.616,8.488-10.309S120.263,0,113.023,0s-8.488,4.616-8.488,10.309S108.335,20.618,113.023,20.618Z" transform="translate(-96.99)"/><path class="a" d="M41.9,300.55c0-.347,0-.1,0,0Z" transform="translate(-41.895 -264.191)"/><path class="a" d="M308.085,301.8c0-.1,0-.659,0,0Z" transform="translate(-276.021 -265.171)"/><path class="a" d="M73.952,192.274c-.157-9.918-1.453-12.745-11.365-14.534a5.942,5.942,0,0,1-4.648,1.778,5.943,5.943,0,0,1-4.648-1.778c-9.8,1.769-11.178,4.554-11.359,14.211-.015.789-.022.83-.024.739,0,.172,0,.489,0,1.042,0,0,2.36,4.757,16.03,4.757s16.03-4.757,16.03-4.757c0-.356,0-.6,0-.771A6.38,6.38,0,0,1,73.952,192.274Z" transform="translate(-41.906 -156.331)"/></svg>