<svg xmlns="http://www.w3.org/2000/svg" width="19.531" height="23.41" viewBox="0 0 19.531 23.41"><defs><style>.a{opacity:0.2;}.b{fill:#0b0b0b;}</style></defs><g class="a"><path class="b" d="M92.67,11.277a5.456,5.456,0,0,0,3.987-1.652,5.456,5.456,0,0,0,1.652-3.987,5.456,5.456,0,0,0-1.652-3.987,5.637,5.637,0,0,0-7.973,0,5.456,5.456,0,0,0-1.652,3.986,5.456,5.456,0,0,0,1.652,3.987A5.458,5.458,0,0,0,92.67,11.277ZM89.653,2.622a4.265,4.265,0,0,1,6.033,0,4.076,4.076,0,0,1,1.25,3.016,4.076,4.076,0,0,1-1.25,3.017,4.265,4.265,0,0,1-6.033,0A4.075,4.075,0,0,1,88.4,5.638,4.076,4.076,0,0,1,89.653,2.622Zm0,0" transform="translate(-83.052 0)"/><path class="b" d="M19.484,254.01a13.928,13.928,0,0,0-.19-1.479,11.653,11.653,0,0,0-.364-1.487,7.346,7.346,0,0,0-.612-1.387,5.228,5.228,0,0,0-.922-1.2,4.065,4.065,0,0,0-1.324-.832,4.577,4.577,0,0,0-1.691-.306,1.716,1.716,0,0,0-.916.389c-.275.179-.6.386-.955.615a5.472,5.472,0,0,1-1.235.544,4.8,4.8,0,0,1-3.022,0,5.454,5.454,0,0,1-1.234-.544c-.355-.227-.677-.434-.956-.616a1.714,1.714,0,0,0-.916-.389,4.571,4.571,0,0,0-1.691.306,4.062,4.062,0,0,0-1.325.832,5.23,5.23,0,0,0-.922,1.2A7.359,7.359,0,0,0,.6,251.043a11.68,11.68,0,0,0-.364,1.487,13.831,13.831,0,0,0-.19,1.48c-.031.447-.047.912-.047,1.382a3.887,3.887,0,0,0,1.155,2.941,4.156,4.156,0,0,0,2.975,1.085H15.4a4.156,4.156,0,0,0,2.975-1.085,3.886,3.886,0,0,0,1.155-2.941C19.531,254.921,19.515,254.455,19.484,254.01Zm-2.053,3.33a2.8,2.8,0,0,1-2.029.707H4.13A2.8,2.8,0,0,1,2.1,257.34a2.538,2.538,0,0,1-.729-1.947c0-.439.014-.872.043-1.288a12.476,12.476,0,0,1,.171-1.332,10.3,10.3,0,0,1,.32-1.311,5.992,5.992,0,0,1,.5-1.128,3.876,3.876,0,0,1,.677-.888,2.7,2.7,0,0,1,.881-.548,3.157,3.157,0,0,1,1.08-.208c.048.026.134.074.272.165.282.184.607.393.966.623a6.8,6.8,0,0,0,1.55.693,6.167,6.167,0,0,0,3.866,0,6.805,6.805,0,0,0,1.551-.693c.368-.235.684-.439.966-.623.139-.09.224-.139.272-.165a3.159,3.159,0,0,1,1.081.208,2.7,2.7,0,0,1,.881.548,3.866,3.866,0,0,1,.677.888,5.973,5.973,0,0,1,.5,1.128,10.28,10.28,0,0,1,.32,1.311,12.58,12.58,0,0,1,.171,1.333h0c.029.414.044.847.044,1.287A2.538,2.538,0,0,1,17.431,257.34Zm0,0" transform="translate(0 -236.008)"/></g></svg>