<svg xmlns="http://www.w3.org/2000/svg" width="15.601" height="20.511" viewBox="0 0 15.601 20.511"><defs><style>.a{fill:#898888;}</style></defs><g transform="translate(-41.895)"><path class="a" d="M108.665,10.031c2.281,0,4.129-2.246,4.129-5.016S112.187,0,108.665,0s-4.13,2.246-4.13,5.016S106.384,10.031,108.665,10.031Z" transform="translate(-58.969)"/><path class="a" d="M41.9,300.459c0-.169,0-.048,0,0Z" transform="translate(0 -282.769)"/><path class="a" d="M308.085,301.64c0-.046,0-.321,0,0Z" transform="translate(-250.59 -283.818)"/><path class="a" d="M57.5,184.811c-.076-4.826-.707-6.2-5.529-7.071a3.388,3.388,0,0,1-4.522,0c-4.77.861-5.439,2.216-5.527,6.914-.007.384-.011.4-.012.359,0,.083,0,.238,0,.507,0,0,1.148,2.315,7.8,2.315s7.8-2.315,7.8-2.315c0-.173,0-.293,0-.375A3.105,3.105,0,0,1,57.5,184.811Z" transform="translate(-0.012 -167.324)"/></g></svg>