<svg xmlns="http://www.w3.org/2000/svg" width="20.012" height="20.012" viewBox="0 0 20.012 20.012"><defs><style>.a{fill:#6f6f6f;}</style></defs><g transform="translate(0 20.012) rotate(-90)"><path class="a" d="M9.077,14.136l0,0A.935.935,0,1,1,7.81,12.756l0,0,3-2.748-3-2.749,0,0A.929.929,0,0,1,7.5,6.566a.935.935,0,0,1,1.57-.689l0,0,3.752,3.44a.939.939,0,0,1,0,1.383Zm.929,5.875A10.006,10.006,0,1,1,20.012,10.006,10.006,10.006,0,0,1,10.006,20.012Zm0-18.136a8.13,8.13,0,1,0,8.13,8.13A8.139,8.139,0,0,0,10.006,1.876Z"/></g></svg>