<svg xmlns="http://www.w3.org/2000/svg" width="16.598" height="12.649" viewBox="0 0 16.598 12.649"><defs><style>.a{fill:#606060;}</style></defs><path class="a" d="M366.2,770.947h-3.6v-.493a1.651,1.651,0,0,0-1.649-1.65h-2.5a1.651,1.651,0,0,0-1.65,1.65v.493h-3.6a1.8,1.8,0,0,0-1.8,1.8v6.9a1.8,1.8,0,0,0,1.8,1.8H366.2a1.8,1.8,0,0,0,1.8-1.8v-6.9A1.8,1.8,0,0,0,366.2,770.947Zm.667,8.7a.668.668,0,0,1-.667.667h-1.047c0-.014,0-.028,0-.043v-8.194H366.2a.668.668,0,0,1,.667.667Zm-14.329,0v-6.9a.668.668,0,0,1,.667-.667h1.045v8.194c0,.014,0,.029,0,.043H353.2A.668.668,0,0,1,352.537,779.652Zm5.4-9.2a.516.516,0,0,1,.515-.515h2.5a.516.516,0,0,1,.515.515v.493h-3.53Zm-.567,1.628h6.65v8.194c0,.014,0,.029,0,.043h-8.64c0-.014,0-.028,0-.043v-8.194Z" transform="translate(-351.402 -768.805)"/></svg>