<svg xmlns="http://www.w3.org/2000/svg" width="16" height="21.333" viewBox="0 0 16 21.333"><defs><style>.a{fill:#898888;}</style></defs><path class="a" d="M160.426,102l.24-.721V96.333a.333.333,0,0,0-.667,0v4.946l.24.721Zm0,0" transform="translate(-152.333 -91.158)"/><path class="a" d="M120,233.513h1.2l-.094-.282-1.11.222Zm0,0" transform="translate(-114.219 -222.103)"/><path class="a" d="M188.309,233.452l-1.11-.222-.094.282h1.2Zm0,0" transform="translate(-178.091 -222.103)"/><path class="a" d="M98,146.246l-2,.5v.073h2Zm0,0" transform="translate(-91.333 -139.254)"/><path class="a" d="M258.862,14.174,256,11.313v1.862a1,1,0,0,0,1,1Zm0,0" transform="translate(-243.333 -10.841)"/><path class="a" d="M194,146.746l-2-.5v.573h2Zm0,0" transform="translate(-182.667 -139.254)"/><path class="a" d="M16,4.571H13.333a1.907,1.907,0,0,1-1.9-1.9V0H1.143A1.143,1.143,0,0,0,0,1.143V20.19a1.143,1.143,0,0,0,1.143,1.143H14.857A1.143,1.143,0,0,0,16,20.19ZM3.81,7.238a.381.381,0,0,1,.288-.37l2.759-.69V4.952a1.143,1.143,0,1,1,2.286,0V6.179l2.759.69a.381.381,0,0,1,.288.37V8a.381.381,0,0,1-.381.381H9.143v1.973l1.6.32a.381.381,0,0,1,.3.373v.762a.381.381,0,0,1-.381.381H5.333a.381.381,0,0,1-.381-.381v-.762a.381.381,0,0,1,.3-.373l1.6-.32V8.381H4.19A.381.381,0,0,1,3.81,8Zm6.476,8V16H8.762v-.762Zm-1.524-.762v-.762h.762v.762ZM1.9,13.714H3.429v.762H1.9Zm0,1.524H4.952V16H1.9Zm.762,3.81H1.9v-.762h.762Zm4.571,0H3.429v-.762h3.81Zm0-1.524H1.9v-.762H7.238Zm0-1.524H5.714v-.762H7.238Zm0-1.524H4.19v-.762H7.238Zm3.81,4.571H8.762v-.762h2.286Zm3.048,0H11.81v-.762H14.1Zm0-1.524H8.762v-.762H14.1ZM14.1,16H11.048v-.762H14.1Zm0-1.524h-3.81v-.762H14.1Zm0,0"/></svg>