<svg xmlns="http://www.w3.org/2000/svg" width="17.061" height="18.612" viewBox="0 0 17.061 18.612"><defs><style>.a{fill:#898888;}</style></defs><g transform="translate(-73.09 -91.363)"><path class="a" d="M165.812,99.306a4.651,4.651,0,1,0-1.363-3.29A4.484,4.484,0,0,0,165.812,99.306Z" transform="translate(-87.482)"/><path class="a" d="M89.939,296.727a10.262,10.262,0,0,0-.321-1.315,6.245,6.245,0,0,0-.521-1.181,4.272,4.272,0,0,0-.751-.982,3.168,3.168,0,0,0-1.036-.648,3.639,3.639,0,0,0-1.351-.242,1.427,1.427,0,0,0-.521.261q-.4.26-.885.582a5.627,5.627,0,0,1-5.865,0q-.485-.321-.885-.582a1.428,1.428,0,0,0-.521-.261,3.64,3.64,0,0,0-1.351.242,3.162,3.162,0,0,0-1.036.648,4.261,4.261,0,0,0-.751.982,6.233,6.233,0,0,0-.521,1.181,10.292,10.292,0,0,0-.321,1.315,12.321,12.321,0,0,0-.17,1.321q-.042.612-.042,1.254a3.019,3.019,0,0,0,.884,2.3,3.27,3.27,0,0,0,2.351.842H86.916a3.27,3.27,0,0,0,2.351-.842,3.019,3.019,0,0,0,.885-2.3q0-.642-.042-1.254A12.53,12.53,0,0,0,89.939,296.727Z" transform="translate(0 -192.466)"/></g></svg>