<svg xmlns="http://www.w3.org/2000/svg" width="19.437" height="20.438" viewBox="0 0 19.437 20.438"><defs><style>.a{fill:#626161;}</style></defs><g transform="translate(-1.091)"><g transform="translate(1.091)"><path class="a" d="M22.116,9.582,13.07.535a1.824,1.824,0,0,0-2.581,0L5.535,5.488a1.852,1.852,0,0,0,0,2.6l.821.844H8.25L6.482,7.144a.507.507,0,0,1-.142-.355.494.494,0,0,1,.142-.349l.654-.634,3.109,3.129h2.982l-4.6-4.623,2.809-2.82a.494.494,0,0,1,.344-.147.479.479,0,0,1,.344.139L21.17,10.53a.482.482,0,0,1,.143.343.512.512,0,0,1-.156.344l-.513.5v1.894L22.1,12.164A1.826,1.826,0,0,0,22.116,9.582Z" transform="translate(-3.207)"/><path class="a" d="M15.755,21.328H2.961a1.859,1.859,0,0,0-1.87,1.82v4.839H17.557V23.148A1.8,1.8,0,0,0,15.755,21.328ZM5.562,26.339a1.322,1.322,0,0,1-.919-.372,1.328,1.328,0,1,1,0-1.914,1.328,1.328,0,1,1,.919,2.285Z" transform="translate(-1.091 -11.545)"/><path class="a" d="M1.091,40.439a1.868,1.868,0,0,0,1.87,1.83H15.755a1.811,1.811,0,0,0,1.8-1.83v-.107H1.091Z" transform="translate(-1.091 -21.832)"/></g></g></svg>