<svg xmlns="http://www.w3.org/2000/svg" width="17.601" height="18" viewBox="0 0 17.601 18"><defs><style>.a{fill:#898888;}</style></defs><g transform="translate(697 263.163)"><g transform="translate(-697 -263.163)"><g transform="translate(0)"><path class="a" d="M21.445,54.15v2.127a1.758,1.758,0,0,1-1.782,1.736H18.538a1.768,1.768,0,0,1-1.793-1.736V54.142H11.677v2.135a1.768,1.768,0,0,1-1.793,1.736H8.76a1.758,1.758,0,0,1-1.782-1.736V54.15a1.6,1.6,0,0,0-1.567,1.575V68.192a1.6,1.6,0,0,0,1.613,1.586H21.4a1.6,1.6,0,0,0,1.613-1.586V55.725A1.6,1.6,0,0,0,21.445,54.15Zm-.522,13.266a.69.69,0,0,1-.7.682H8.167a.69.69,0,0,1-.7-.682v-6.44a.69.69,0,0,1,.7-.682H20.225a.69.69,0,0,1,.7.682v6.44Z" transform="translate(-5.411 -51.778)"/><path class="a" d="M80.274,5.674h1.317a.724.724,0,0,0,.724-.723V.724A.724.724,0,0,0,81.591,0H80.274a.724.724,0,0,0-.724.724V4.951A.724.724,0,0,0,80.274,5.674Z" transform="translate(-76.893)"/><path class="a" d="M345.182,5.674H346.5a.723.723,0,0,0,.724-.723V.724A.724.724,0,0,0,346.5,0h-1.317a.724.724,0,0,0-.724.724V4.951A.724.724,0,0,0,345.182,5.674Z" transform="translate(-332.308)"/></g><g transform="translate(5.703 9.296)"><g transform="translate(0 0)"><path class="a" d="M.337,43.7l-.009,0H4.343L3.081,42.432a.331.331,0,0,1,0-.466l.2-.2a.329.329,0,0,1,.464,0L5.9,43.933a.331.331,0,0,1,0,.465L3.741,46.562a.329.329,0,0,1-.464,0l-.2-.2a.325.325,0,0,1-.1-.232.315.315,0,0,1,.1-.227l1.276-1.272H.333A.34.34,0,0,1,0,44.3V44.02A.333.333,0,0,1,.337,43.7Z" transform="translate(0 -41.674)"/></g></g></g></g></svg>