<svg xmlns="http://www.w3.org/2000/svg" width="19.098" height="18.977" viewBox="0 0 19.098 18.977"><defs><style>.a{fill:#fff;}</style></defs><g transform="translate(-11 -14.1)"><g transform="translate(11 14.1)"><path class="a" d="M29.3,341.4a.793.793,0,0,0-.8.8v3.835H12.59V342.2a.8.8,0,0,0-1.59,0v4.63a.793.793,0,0,0,.8.8H29.3a.793.793,0,0,0,.8-.8V342.2A.793.793,0,0,0,29.3,341.4Z" transform="translate(-11 -328.644)"/><path class="a" d="M123.057,27.8a.8.8,0,0,0,1.165,0l4.572-4.919a.8.8,0,1,0-1.165-1.083l-3.192,3.434V14.9a.8.8,0,1,0-1.59,0v10.34L119.655,21.8a.8.8,0,0,0-1.169,1.083l4.572,4.915Z" transform="translate(-114.093 -14.1)"/></g></g></svg>