<svg xmlns="http://www.w3.org/2000/svg" width="18.849" height="16.37" viewBox="0 0 18.849 16.37"><defs><style>.a{fill:#898888;}</style></defs><g transform="translate(0 -42.666)"><g transform="translate(0 42.666)"><path class="a" d="M17.278,45.122H13.351V44.3a1.606,1.606,0,0,0-1.571-1.637H7.068A1.606,1.606,0,0,0,5.5,44.3v.818H1.571A1.606,1.606,0,0,0,0,46.758v2.455a1.606,1.606,0,0,0,1.571,1.637H7.854v-.409a.4.4,0,0,1,.393-.409H10.6a.4.4,0,0,1,.393.409v.409h6.283a1.606,1.606,0,0,0,1.571-1.637V46.758A1.606,1.606,0,0,0,17.278,45.122Zm-5.5,0H7.068V44.3H11.78Z" transform="translate(0 -42.666)"/><path class="a" d="M18.631,266.427a.38.38,0,0,0-.412.04,1.511,1.511,0,0,1-.941.337H10.995v1.228a.4.4,0,0,1-.393.409H8.246a.4.4,0,0,1-.393-.409V266.8H1.571a1.511,1.511,0,0,1-.941-.337.377.377,0,0,0-.412-.04.411.411,0,0,0-.218.367v5.74a1.606,1.606,0,0,0,1.571,1.637H17.278a1.606,1.606,0,0,0,1.571-1.637v-5.74A.412.412,0,0,0,18.631,266.427Z" transform="translate(0 -257.8)"/></g></g></svg>