<svg xmlns="http://www.w3.org/2000/svg" width="20.151" height="17.445" viewBox="0 0 20.151 17.445"><defs><style>.a{fill:#ffde55;}</style></defs><ellipse class="a" cx="4.211" cy="4.211" rx="4.211" ry="4.211" transform="translate(5.864 4.512)"/><path class="a" d="M230.419,0h0a.9.9,0,0,1,.9.9v1.5a.9.9,0,0,1-.9.9h0a.9.9,0,0,1-.9-.9V.9A.9.9,0,0,1,230.419,0Z" transform="translate(-220.344)"/><path class="a" d="M230.419,414.9h0a.9.9,0,0,1,.9.9v1.5a.9.9,0,0,1-.9.9h0a.9.9,0,0,1-.9-.9v-1.5A.9.9,0,0,1,230.419,414.9Z" transform="translate(-220.344 -400.761)"/><path class="a" d="M62.064,62.06h0a.9.9,0,0,1,1.276,0L64.4,63.123a.9.9,0,0,1,0,1.276h0a.9.9,0,0,1-1.276,0l-1.063-1.063A.9.9,0,0,1,62.064,62.06Z" transform="translate(-59.694 -59.69)"/><path class="a" d="M0,230.419H0a.9.9,0,0,1,.9-.9h1.5a.9.9,0,0,1,.9.9h0a.9.9,0,0,1-.9.9H.9A.9.9,0,0,1,0,230.419Z" transform="translate(0 -221.697)"/><path class="a" d="M62.058,368.6h0a.9.9,0,0,1,0-1.276l1.063-1.063a.9.9,0,0,1,1.276,0h0a.9.9,0,0,1,0,1.276L63.334,368.6A.9.9,0,0,1,62.058,368.6Z" transform="translate(-59.688 -353.522)"/><path class="a" d="M368.609,368.6h0a.9.9,0,0,1-1.276,0l-1.063-1.063a.9.9,0,0,1,0-1.276h0a.9.9,0,0,1,1.276,0l1.063,1.063A.9.9,0,0,1,368.609,368.6Z" transform="translate(-350.829 -353.529)"/><path class="a" d="M418.2,230.419h0a.9.9,0,0,1-.9.9h-1.5a.9.9,0,0,1-.9-.9h0a.9.9,0,0,1,.9-.9h1.5A.9.9,0,0,1,418.2,230.419Z" transform="translate(-398.054 -221.697)"/><path class="a" d="M368.619,62.086h0a.9.9,0,0,1,0,1.276l-1.063,1.063a.9.9,0,0,1-1.276,0h0a.9.9,0,0,1,0-1.276l1.063-1.063A.9.9,0,0,1,368.619,62.086Z" transform="translate(-350.839 -59.715)"/></svg>