<svg xmlns="http://www.w3.org/2000/svg" width="22.559" height="15.21" viewBox="0 0 22.559 15.21"><defs><style>.a{fill:#ffde55;}.b{fill:#57c3ff;}</style></defs><g transform="translate(0 -69.123)"><rect class="a" width="1.049" height="3.117" transform="translate(10.755 69.123)"/><rect class="a" width="1.049" height="3.117" transform="translate(15.96 74.396) rotate(-135)"/><rect class="a" width="3.117" height="1.049" transform="translate(2.068 77.81)"/><rect class="a" width="3.117" height="1.049" transform="translate(17.374 77.81)"/><rect class="a" width="1.049" height="3.117" transform="translate(4.395 72.192) rotate(-45)"/><path class="a" d="M123.055,148.267a5,5,0,0,0-3.992,8.02,2.366,2.366,0,0,0,1.2-.379,2.324,2.324,0,0,0,.332-.259,1.593,1.593,0,0,1,.2-.158,1.61,1.61,0,0,1,1.8,0,1.592,1.592,0,0,1,.2.158,2.385,2.385,0,0,0,3.253,0c.026-.024.053-.048.081-.071s.078-.061.118-.088a1.6,1.6,0,0,1,1.216-.241,1.53,1.53,0,0,1,.174.045,4.9,4.9,0,0,0,.257-.731,5.007,5.007,0,0,0-4.836-6.3Z" transform="translate(-111.776 -74.937)"/><path class="b" d="M22.455,266.593a.389.389,0,0,1-.549.018,1.607,1.607,0,0,0-2.193,0,2.368,2.368,0,0,1-1.081.578h0a2.385,2.385,0,0,1-2.172-.578,1.557,1.557,0,0,0-.2-.158,1.574,1.574,0,0,0-.4-.2,1.53,1.53,0,0,0-.174-.045,1.6,1.6,0,0,0-1.216.241q-.061.041-.118.088c-.028.022-.055.046-.081.071a2.385,2.385,0,0,1-3.253,0,1.593,1.593,0,0,0-.2-.158,1.61,1.61,0,0,0-1.8,0,1.593,1.593,0,0,0-.2.158,2.324,2.324,0,0,1-.332.259,2.388,2.388,0,0,1-2.921-.259,1.606,1.606,0,0,0-2.192,0l-.033.03a2.385,2.385,0,0,1-3.22-.03.388.388,0,0,1,.531-.567,1.607,1.607,0,0,0,2.192,0l0,0a2.382,2.382,0,0,1,3.25,0,1.592,1.592,0,0,0,.679.377l.091.021.054.01a1.612,1.612,0,0,0,1.09-.2,1.523,1.523,0,0,0,.278-.208,2.385,2.385,0,0,1,3.253,0,1.608,1.608,0,0,0,2.192,0,2.36,2.36,0,0,1,1.186-.6,2.417,2.417,0,0,1,.643-.032,2.381,2.381,0,0,1,1.424.632l.025.023a1.607,1.607,0,0,0,2.167-.023,2.353,2.353,0,0,1,.86-.515,2.385,2.385,0,0,1,2.393.515A.389.389,0,0,1,22.455,266.593Z" transform="translate(0 -185.846)"/><path class="b" d="M22.457,321.661a.388.388,0,0,1-.549.018,1.607,1.607,0,0,0-2.193,0,2.368,2.368,0,0,1-1.081.578h0a2.383,2.383,0,0,1-2.172-.578,1.557,1.557,0,0,0-.2-.158,1.579,1.579,0,0,0-.578-.242,1.607,1.607,0,0,0-1.217.242,1.548,1.548,0,0,0-.2.158,2.386,2.386,0,0,1-3.253,0,1.557,1.557,0,0,0-.2-.158,1.609,1.609,0,0,0-1.8,0,1.548,1.548,0,0,0-.2.158,2.385,2.385,0,0,1-3.253,0,1.607,1.607,0,0,0-2.193,0l-.033.03a2.386,2.386,0,0,1-3.22-.03.388.388,0,1,1,.531-.567,1.607,1.607,0,0,0,2.192,0l0,0a2.381,2.381,0,0,1,3.25,0,1.591,1.591,0,0,0,.77.4l.054.01a1.608,1.608,0,0,0,1.368-.408,2.386,2.386,0,0,1,3.253,0,1.586,1.586,0,0,0,.824.408,1.608,1.608,0,0,0,1.368-.408,2.387,2.387,0,0,1,3.253,0l.025.023a1.608,1.608,0,0,0,2.168-.023,2.35,2.35,0,0,1,.86-.515,2.384,2.384,0,0,1,2.393.515A.389.389,0,0,1,22.457,321.661Z" transform="translate(-0.003 -237.986)"/></g></svg>