<svg xmlns="http://www.w3.org/2000/svg" width="18.694" height="16.824" viewBox="0 0 18.694 16.824"><defs><style>.a{fill:#f0c419;}.b{fill:#ede21b;}.c{fill:#f29c1f;}</style></defs><g transform="translate(0 -35.78)"><g transform="translate(0 35.78)"><path class="a" d="M29.306,3A.306.306,0,0,0,29,3.306V5.143a.306.306,0,1,0,.612,0V3.306A.306.306,0,0,0,29.306,3Z" transform="translate(-19.959 -3)"/><path class="a" d="M54.143,32H52.306a.306.306,0,1,0,0,.612h1.837a.306.306,0,1,0,0-.612Z" transform="translate(-35.755 -23.123)"/><path class="a" d="M2.143,32H.306a.306.306,0,1,0,0,.612H2.143a.306.306,0,1,0,0-.612Z" transform="translate(0 -23.123)"/><path class="a" d="M47.542,10.09a.306.306,0,0,0-.433,0l-1.756,1.756a.306.306,0,1,0,.433.433l1.756-1.756A.306.306,0,0,0,47.542,10.09Z" transform="translate(-31.081 -7.857)"/><path class="a" d="M7.522,10.09a.306.306,0,0,0-.433.433l1.756,1.756a.306.306,0,0,0,.433-.433Z" transform="translate(-4.857 -7.857)"/><path class="a" d="M51.6,22.027a.306.306,0,0,0-.4-.162l-.845.359a.306.306,0,1,0,.239.564l.845-.359A.306.306,0,0,0,51.6,22.027Z" transform="translate(-34.486 -16.074)"/><path class="a" d="M6.164,22.626l-.852-.344a.306.306,0,1,0-.229.568l.852.344a.309.309,0,0,0,.114.022.306.306,0,0,0,.115-.59Z" transform="translate(-3.395 -16.365)"/><path class="a" d="M19.428,8.252a.306.306,0,1,0-.564.239l.359.845a.306.306,0,0,0,.564-.239Z" transform="translate(-12.965 -6.515)"/><path class="a" d="M38.38,7.915a.306.306,0,0,0-.4.169l-.344.851a.306.306,0,0,0,.169.4.31.31,0,0,0,.114.022.306.306,0,0,0,.284-.192l.344-.852A.306.306,0,0,0,38.38,7.915Z" transform="translate(-25.884 -6.395)"/></g><path class="a" d="M22.046,21.57a5.964,5.964,0,0,0,.526-2.449,6.288,6.288,0,0,0-12.572,0,5.964,5.964,0,0,0,.526,2.449Z" transform="translate(-6.939 25.954)"/><path class="b" d="M23.47,25.04a4.591,4.591,0,1,0-7.758,0Z" transform="translate(-10.244 22.514)"/><g transform="translate(0 47.401)"><path class="c" d="M18.382,40H.312a.306.306,0,1,0,0,.612H18.382a.306.306,0,1,0,0-.612Z" transform="translate(0 -40)"/><path class="c" d="M20.32,45H5.313a.306.306,0,1,0,0,.612H20.32a.306.306,0,1,0,0-.612Z" transform="translate(-3.47 -43.47)"/><path class="c" d="M22.258,50H10.314a.306.306,0,1,0,0,.612H22.258a.306.306,0,1,0,0-.612Z" transform="translate(-6.939 -46.939)"/><path class="c" d="M23.807,55H14.316a.306.306,0,1,0,0,.612h9.491a.306.306,0,1,0,0-.612Z" transform="translate(-9.715 -50.409)"/></g></g></svg>