<svg xmlns="http://www.w3.org/2000/svg" width="14.14" height="14.14" viewBox="0 0 14.14 14.14">
  <path id="flaticon1563354420-svg" d="M9.79.661A.719.719,0,0,0,8.74.7L7,2.7a.2.2,0,0,1-.222.052L1.95.754l-.613.613L5.251,4.332a.2.2,0,0,1,.022.292L2.742,7.233a.2.2,0,0,1-.21.048L.181,6.4,0,6.577l1.984,1.5a.194.194,0,0,1,.031.029l.376.376a.2.2,0,0,1,.029.031l1.454,1.939.182-.181L3.208,7.956a.2.2,0,0,1,.054-.214l2.6-2.524a.192.192,0,0,1,.151-.055.2.2,0,0,1,.141.077l2.932,3.87L9.7,8.5l-2-4.823a.2.2,0,0,1,.052-.222l2-1.745a.444.444,0,0,0,.036-.034A.719.719,0,0,0,9.79.661Zm0,0" transform="matrix(0.695, 0.719, -0.719, 0.695, 7.518, -0.313)" fill="#cbc5c6"/>
</svg>
