<svg xmlns="http://www.w3.org/2000/svg" width="22.295" height="22.295" viewBox="0 0 22.295 22.295"><defs><style>.a{fill:#505050;}</style></defs><path class="a" d="M39.228,29.813A9.4,9.4,0,0,0,35.181,47.69L35.475,42s-.554-.182-.675-.241c-1.174-.517-2.027-2.04-2.027-4.016,0-2.156,1.672-4.014,3.289-4.029h.006c1.617.015,3.29,1.873,3.29,4.029,0,1.976-.854,3.5-2.026,4.016l-.68.248.329,6.322a9.216,9.216,0,0,0,5.236-.212l.291-5.634a3.021,3.021,0,0,1-1.832-1.27c-.508-.761.391-7.5.391-7.5h.585v6.323h.581V33.718h.636v6.324h.578V33.718h.659v6.324h.58V33.718h.449s.9,6.738.391,7.5a3.029,3.029,0,0,1-1.813,1.267l-.026.009.253,4.847a9.4,9.4,0,0,0-4.714-17.528Z" transform="translate(-28.079 -28.067)"/><path class="a" d="M91.536,142.2a2.7,2.7,0,0,1,.081-.27.123.123,0,0,0-.068-.137.112.112,0,0,0-.148.032s-.064.1-.158.254a2.724,2.724,0,0,0-.265.6,4.943,4.943,0,0,0-.181.867,4.138,4.138,0,0,0-.013.5,2.381,2.381,0,0,0,.1.533,3.451,3.451,0,0,0,.84,1.535,2.894,2.894,0,0,0,.449.364l.043.03c.026.017.051.033.075.047a.861.861,0,0,0,.181.075.109.109,0,0,0,.123-.052.11.11,0,0,0-.036-.131,1.175,1.175,0,0,1-.134-.146,2.655,2.655,0,0,1-.172-.236c-.046-.067-.1-.142-.15-.216a7.608,7.608,0,0,1-.594-1.46,1.941,1.941,0,0,1-.083-.4,4.1,4.1,0,0,1-.023-.43,5.677,5.677,0,0,1,.035-.8A3.114,3.114,0,0,1,91.536,142.2Z" transform="translate(-85.465 -133.48)"/><path class="a" d="M11.148,0A11.148,11.148,0,1,0,22.3,11.148,11.161,11.161,0,0,0,11.148,0Zm0,21.464A10.317,10.317,0,1,1,21.465,11.148,10.329,10.329,0,0,1,11.148,21.464Z"/></svg>