<svg xmlns="http://www.w3.org/2000/svg" width="23.902" height="23.902" viewBox="0 0 23.902 23.902"><defs><style>.a{fill:#7c7c7c;}.b{fill:#fff;}</style></defs><g transform="translate(-149 -143)"><circle class="a" cx="11.951" cy="11.951" r="11.951" transform="translate(149 143)"/><g transform="translate(155 150.449)"><g transform="translate(0 0)"><path class="b" d="M.618,45.38l-.017,0H7.962L5.648,43.064a.608.608,0,0,1,0-.854l.36-.36a.6.6,0,0,1,.85,0l3.967,3.966a.606.606,0,0,1,0,.853L6.858,50.635a.6.6,0,0,1-.85,0l-.36-.36a.6.6,0,0,1-.175-.425.578.578,0,0,1,.175-.417L7.988,47.1H.61A.623.623,0,0,1,0,46.484v-.509A.611.611,0,0,1,.618,45.38Z" transform="translate(0 -41.674)"/></g></g></g></svg>