<svg xmlns="http://www.w3.org/2000/svg" width="22.149" height="25.099" viewBox="0 0 22.149 25.099">
  <g id="group_user" transform="translate(212.904 -60.419)">
    <path id="Path_45103" data-name="Path 45103" d="M121.418,154.727a5.422,5.422,0,0,1,2.523,4.026,4.372,4.372,0,1,0-2.523-4.026Zm-2.866,8.956a4.374,4.374,0,1,0-4.375-4.374A4.374,4.374,0,0,0,118.553,163.683Zm1.855.3H116.7a5.608,5.608,0,0,0-5.6,5.6v4.539l.012.071.312.1a25.508,25.508,0,0,0,7.615,1.228,15.629,15.629,0,0,0,6.649-1.249l.292-.148h.031v-4.539A5.606,5.606,0,0,0,120.408,163.981Zm7.237-4.515h-3.683a5.391,5.391,0,0,1-1.664,3.755,6.655,6.655,0,0,1,4.753,6.368v1.4a15.079,15.079,0,0,0,5.87-1.233l.292-.149h.031v-4.54A5.606,5.606,0,0,0,127.645,159.466Z" transform="translate(-324 -90)" fill="#898888"/>
  </g>
</svg>
