<svg xmlns="http://www.w3.org/2000/svg" width="18.601" height="26.551" viewBox="0 0 18.601 26.551"><defs><style>.a{fill:#898888;}</style></defs><g transform="translate(-11.908)"><path class="a" d="M25.07,16.817s2.538,2.541,2.545,2.545a2.241,2.241,0,0,1-.168,3.029l-3.54,3.689a1.318,1.318,0,1,1-1.867-1.85l2.246-2.247-2.2-2.181,2.983-2.984Zm-7.893,0h0s-2.534,2.541-2.534,2.545a2.242,2.242,0,0,0,.152,3.029l3.556,3.689a1.319,1.319,0,1,0,1.869-1.85l-2.242-2.247L20.159,19.8l-2.982-2.984m4.035-9.453a3.682,3.682,0,1,0-3.687-3.687A3.681,3.681,0,0,0,21.211,7.364Zm3.99,7.978.054-2.512,3.061,2.856a1.279,1.279,0,0,0,.889.349,1.3,1.3,0,0,0,.89-2.254s-3.509-3.814-4.014-4.258c-.933-.828-2.3-1.3-4.524-1.3h-.7c-2.223,0-3.591.469-4.528,1.3-.5.444-4.012,4.26-4.012,4.26a1.3,1.3,0,0,0,.89,2.254,1.286,1.286,0,0,0,.89-.349l3.06-2.854.053,2.512H25.2Z"/></g></svg>