<svg xmlns="http://www.w3.org/2000/svg" width="20" height="20" viewBox="0 0 20 20"><defs><style>.a{fill:#747373;}.b{fill:#dc0d15;}</style></defs><g transform="translate(-3252 -622)"><g transform="translate(3256 590.452)"><g transform="translate(0 36.548)"><path class="a" d="M.436,110.07A1.425,1.425,0,0,0,0,111.115v5.5a1.425,1.425,0,0,0,.436,1.045,1.425,1.425,0,0,0,1.045.436H1.9v-8.464H1.481A1.425,1.425,0,0,0,.436,110.07Z" transform="translate(0 -107.941)"/><path class="a" d="M115.56,37.183a.632.632,0,0,0-.635-.635h-3.809a.632.632,0,0,0-.635.635v1.058h-.846V46.7h6.771V38.241h-.846Zm-.846,1.058h-3.385v-.846h3.385Z" transform="translate(-107.097 -36.548)"/><path class="a" d="M430.868,110.07a1.426,1.426,0,0,0-1.045-.436H429.4V118.1h.423a1.49,1.49,0,0,0,1.481-1.481v-5.5A1.426,1.426,0,0,0,430.868,110.07Z" transform="translate(-419.455 -107.941)"/></g></g><path class="b" d="M17.1,2.949a10.007,10.007,0,1,0,0,14.152A10.023,10.023,0,0,0,17.1,2.949Zm-.763.763a8.94,8.94,0,0,1,.536,12.027L4.311,3.155A8.964,8.964,0,0,1,16.337,3.712ZM3.712,16.337A8.932,8.932,0,0,1,3.527,3.9l12.6,12.625A8.946,8.946,0,0,1,3.712,16.337Z" transform="translate(3251.975 621.975)"/></g></svg>