<svg xmlns="http://www.w3.org/2000/svg" width="20" height="20" viewBox="0 0 20 20"><defs><style>.a{fill:#5c5b5b;}.b{fill:#dc0d15;}</style></defs><g transform="translate(-116.95 -770)"><g transform="translate(121 764.632)"><path class="a" d="M11.555,17.68,8.516,15.69a.76.76,0,0,0-.628-.1c-.025,0-.049.01-.073.017L5.13,16.4l-.212-.7a.778.778,0,0,0,.108.008h0c.02,0,.039,0,.059,0H5.1l.061,0,1.936-.15a.788.788,0,0,0,.724-.845.777.777,0,0,0-.137-.383l.646-1.69a.319.319,0,1,0-.6-.228l-.6,1.581a.784.784,0,0,0-.154,0l-1.689.131L4.034,13.078a.785.785,0,0,0-.151-.1.821.821,0,0,0-1.225.931l.916,3.009-1.76-3.47a.961.961,0,0,0-1.708.883l2.628,5.18a.96.96,0,0,0,.335.367v1.4a.319.319,0,0,0,.319.319H6.947a.319.319,0,0,0,.319-.319V18.994l.215-.063a.954.954,0,0,0,.482-.326l.521,1.58a.766.766,0,0,0,.728.527h0a.766.766,0,0,0,.24-.039l.038-.012a.767.767,0,0,0,.488-.969L9.492,18.21l1.2.786a.764.764,0,0,0,.42.125h0a.765.765,0,0,0,.642-.347l.022-.033a.767.767,0,0,0-.222-1.062ZM6.629,20.967H3.707v-.942a.959.959,0,0,0,.154-.031l2.767-.812Zm5.486-9.8v.762a1.284,1.284,0,0,1-1.282,1.282h-.776a1.284,1.284,0,0,1-1.282-1.282v-.762a1.284,1.284,0,0,1,1.282-1.282h.776A1.284,1.284,0,0,1,12.115,11.163ZM.068,10.978A.319.319,0,0,1,.7,10.891l.191,1.4a.319.319,0,0,1-.273.359l-.044,0a.319.319,0,0,1-.316-.276Zm2.132.416a1.1,1.1,0,1,1,1.1,1.1A1.1,1.1,0,0,1,2.2,11.393Z" transform="translate(0 0)"/></g><path class="b" d="M17.1,2.949a10.007,10.007,0,1,0,0,14.152A10.023,10.023,0,0,0,17.1,2.949Zm-.763.763a8.94,8.94,0,0,1,.536,12.027L4.311,3.155A8.964,8.964,0,0,1,16.337,3.712ZM3.712,16.337A8.932,8.932,0,0,1,3.527,3.9l12.6,12.625A8.946,8.946,0,0,1,3.712,16.337Z" transform="translate(116.925 769.975)"/></g></svg>