<svg xmlns="http://www.w3.org/2000/svg" width="21.061" height="21.061" viewBox="0 0 21.061 21.061"><defs><style>.a{fill:#898888;}.b{fill:none;stroke:#898888;}</style></defs><g transform="translate(-4694.576 -594.575)"><path class="a" d="M7.462,16.918a7.532,7.532,0,0,1-1.174-.093,7.455,7.455,0,0,1-6.2-8.512A7.6,7.6,0,0,1,.33,7.277l1.188.686c-.046.181-.084.369-.114.558A6.125,6.125,0,0,0,6.5,15.513a6.206,6.206,0,0,0,.965.076,6.057,6.057,0,0,0,3.586-1.173,6.229,6.229,0,0,0,.671-.565l1.188.686a7.545,7.545,0,0,1-1.077.953A7.375,7.375,0,0,1,7.462,16.918Zm.713-3.649H6.995v-.728a2.313,2.313,0,0,1-1.976-1.346l-.044-.1,1.1-.464.043.1a1.538,1.538,0,0,0,1.4.724h.051l1.419.819a2.485,2.485,0,0,1-.809.231v.764Zm6.032-.672h0l-1.156-.668A6.136,6.136,0,0,0,11.2,4.637l.816-1.048A7.464,7.464,0,0,1,14.207,12.6ZM9.847,10.08h0L8.03,9.031a2.093,2.093,0,0,1,1.816,1.046ZM8.775,8.425h0l-.05-.084a1.477,1.477,0,0,0-1.181-.52c-.3,0-.824.045-1.017.343L5.5,7.57a2.118,2.118,0,0,1,1.5-.8V6.1h1.18v.673a1.927,1.927,0,0,1,1.559,1.08l.049.1-1.007.466ZM2.514,5.847h0L1.357,5.179A7.45,7.45,0,0,1,3.064,3.451,7.371,7.371,0,0,1,7.428,2.026c.118,0,.238,0,.356.008L6.543.853,7.357,0l1.9,1.814.851.812L9.3,3.478l-1.813,1.9-.852-.814,1.148-1.2c-.108-.006-.226-.01-.35-.01A6.06,6.06,0,0,0,3.845,4.526a6.131,6.131,0,0,0-1.33,1.32Z" transform="translate(4698.716 595.78)"/><line class="b" x2="16.32" y2="16.32" transform="translate(4695.014 599.511) rotate(-16)"/></g></svg>