<svg xmlns="http://www.w3.org/2000/svg" width="30.902" height="30.902" viewBox="0 0 30.902 30.902"><defs><style>.a{fill:#cc101b;}.b{fill:#fff;}</style></defs><g transform="translate(30.902 31) rotate(180)"><rect class="a" width="30.902" height="30.902" rx="15.451" transform="translate(0 0.098)"/><g transform="translate(23.902 25.283) rotate(180)"><path class="b" d="M17.3,16.463H.269a.329.329,0,0,1,0-.646H17.3a.329.329,0,0,1,0,.646Z" transform="translate(0 -5.839)"/><path class="b" d="M19.421,17.319a.361.361,0,0,1-.229-.079.239.239,0,0,1,0-.381l7.874-6.56L19.192,3.742a.239.239,0,0,1,0-.381.371.371,0,0,1,.457,0l8.1,6.748a.24.24,0,0,1,0,.381l-8.1,6.75A.355.355,0,0,1,19.421,17.319Z" transform="translate(-10.275 0)"/></g></g></svg>