<svg xmlns="http://www.w3.org/2000/svg" xmlns:xlink="http://www.w3.org/1999/xlink" width="20.121" height="14.155" viewBox="0 0 20.121 14.155"><defs><style>.a{fill:none;}.b{clip-path:url(#a);}.c{fill:#898888;}</style><clipPath id="a"><rect class="a" width="20.121" height="14.154"/></clipPath></defs><g class="b"><g transform="translate(0)"><path class="c" d="M19.25,79.4a8.888,8.888,0,0,0-5.3-.276l-2.288.583L5.182,75.991a.591.591,0,0,0-.44-.06l-2.723.694a.591.591,0,0,0-.21,1.044l4.505,3.4-1.855.473L1.9,80.03a.591.591,0,0,0-.792.18L.1,81.722a.591.591,0,0,0,.062.735L3.22,85.683a.591.591,0,0,0,.575.166l15.322-3.906A1.333,1.333,0,0,0,19.25,79.4Z" transform="translate(0 -75.913)"/></g><g transform="translate(0 12.973)"><path class="c" d="M10.175,406.026H.591a.591.591,0,1,0,0,1.181h9.584a.591.591,0,0,0,0-1.181Z" transform="translate(0 -406.026)"/></g></g></svg>