<svg xmlns="http://www.w3.org/2000/svg" width="23.358" height="17.076" viewBox="0 0 23.358 17.076"><defs><style>.a,.b{fill:#606060;}.b{opacity:0.6;}</style></defs><g transform="translate(0 0)"><path class="a" d="M21.118,17.077H2.247A2.254,2.254,0,0,1,0,14.83V2.249A2.254,2.254,0,0,1,2.247,0H3.595l.9,0L21.118,0a2.259,2.259,0,0,1,2.241,2.083V14.993A2.259,2.259,0,0,1,21.118,17.077ZM.9,5.844V14.83a1.349,1.349,0,0,0,1.348,1.348H21.118a1.349,1.349,0,0,0,1.348-1.348V5.844Zm0-1.8v.9H22.466v-.9ZM2.247.9A1.349,1.349,0,0,0,.9,2.249v.9H22.466v-.9A1.349,1.349,0,0,0,21.118.9Z" transform="translate(0)"/><path class="b" d="M244.309,240.5a1.785,1.785,0,0,0-1.348.621,1.8,1.8,0,1,0,0,2.353,1.794,1.794,0,1,0,1.348-2.974Zm-2.7,2.7a.9.9,0,1,1,.9-.9A.9.9,0,0,1,241.613,243.195Zm2.7,0a.9.9,0,1,1,.9-.9A.9.9,0,0,1,244.309,243.195Zm0,0" transform="translate(-226.336 -229.961)"/><path class="b" d="M54.463,275.692H47.742a.48.48,0,1,0,0,.96h6.721a.471.471,0,0,0,.48-.48A.481.481,0,0,0,54.463,275.692Zm-2.88,1.6H47.742a.48.48,0,1,0,0,.96h3.841a.472.472,0,0,0,.48-.48A.481.481,0,0,0,51.583,277.292Z" transform="translate(-44.732 -264.221)"/></g></svg>