<svg xmlns="http://www.w3.org/2000/svg" width="28" height="29.441" viewBox="0 0 28 29.441"><defs><style>.a{fill:#898888;}</style></defs><path class="a" d="M29.655,13.8,16.624.77a2.627,2.627,0,0,0-3.717,0L5.771,7.905a2.668,2.668,0,0,0,0,3.751l1.183,1.215H9.682l-2.547-2.58a.731.731,0,0,1-.2-.511.712.712,0,0,1,.2-.5l.942-.913,4.478,4.507h4.3L10.225,6.212,14.271,2.15a.711.711,0,0,1,.495-.212.69.69,0,0,1,.495.2l13.032,13.03a.7.7,0,0,1,.206.494.737.737,0,0,1-.225.495l-.739.721v2.728l2.1-2.085A2.631,2.631,0,0,0,29.655,13.8Z" transform="translate(-2.417)"/><path class="a" d="M22.215,21.328H3.784a2.678,2.678,0,0,0-2.693,2.621V30.92h23.72V23.949A2.6,2.6,0,0,0,22.215,21.328ZM7.532,28.547a1.9,1.9,0,0,1-1.324-.535,1.913,1.913,0,1,1,0-2.757,1.912,1.912,0,1,1,1.324,3.292Z" transform="translate(-1.091 -7.235)"/><path class="a" d="M1.091,40.487a2.691,2.691,0,0,0,2.693,2.636H22.215a2.608,2.608,0,0,0,2.6-2.636v-.155H1.091Z" transform="translate(-1.091 -13.682)"/></svg>