<svg xmlns="http://www.w3.org/2000/svg" width="25.016" height="22.477" viewBox="0 0 25.016 22.477"><defs><style>.a{fill:#898888;}</style></defs><g transform="translate(0 0)"><path class="a" d="M33.986,11.145H19.4a.6.6,0,0,0-.6.821l2.308,6.76a1,1,0,0,0,.9.66h9.564a1,1,0,0,0,.9-.66l2.011-6.92A.479.479,0,0,0,33.986,11.145Z" transform="translate(-9.486 -6.906)"/><circle class="a" cx="2.182" cy="2.182" r="2.182" transform="translate(9.049 18.086)"/><circle class="a" cx="2.182" cy="2.182" r="2.182" transform="translate(18.283 18.113)"/><path class="a" d="M23.085,17.269H10.323L5.214,2.568H1.236a1.236,1.236,0,1,0,0,2.471H3.456l5.109,14.7h14.52a1.236,1.236,0,0,0,0-2.471Z" transform="translate(0 -2.568)"/></g></svg>