<svg xmlns="http://www.w3.org/2000/svg" width="12.96" height="14.327" viewBox="0 0 12.96 14.327"><defs><style>.a{fill:#f4b50b;}</style></defs><g transform="translate(-20.394 0)"><path class="a" d="M33.316,9.728l-3.48,4.527a.185.185,0,0,1-.293,0l-3.48-4.527a.183.183,0,0,1-.038-.113.185.185,0,0,1,.253-.172l2.3.91V.7A.185.185,0,0,1,28.766.52h1.847A.184.184,0,0,1,30.8.7v9.65l2.3-.91a.185.185,0,0,1,.214.284Zm-5.628-4.9a.185.185,0,0,0,0-.224L24.205.072a.185.185,0,0,0-.293,0L20.432,4.6a.185.185,0,0,0,.214.284l2.3-.91v9.65a.184.184,0,0,0,.185.185h1.847a.185.185,0,0,0,.185-.185V3.973l2.3.91A.186.186,0,0,0,27.687,4.823Z"/></g></svg>