<svg xmlns="http://www.w3.org/2000/svg" width="15.844" height="18" viewBox="0 0 15.844 18"><defs><style>.a{fill:#898888;}</style></defs><g transform="translate(0)"><path class="a" d="M24.389,3.818l-.868,1.116a6.513,6.513,0,1,1-3.634-1.356L18.665,4.86l.907.865L21.5,3.7h0l.864-.907-.906-.864h0L19.434,0l-.865.907,1.319,1.256A7.921,7.921,0,0,0,18.3,17.9a8.006,8.006,0,0,0,1.248.1A7.925,7.925,0,0,0,24.389,3.818Z" transform="translate(-11.608)"/><path class="a" d="M72,77.536h0v-.813a1.936,1.936,0,0,0,1.9-1.874c0-1.572-1.461-1.752-2.529-1.883-.682-.082-1.2-.176-1.2-.59,0-.575.81-.637,1.159-.637a1.573,1.573,0,0,1,1.256.553l.054.09,1.072-.5-.053-.108A2.116,2.116,0,0,0,72,70.629v-.716H70.743v.713c-1.169.172-1.863.821-1.863,1.749,0,1.513,1.374,1.667,2.376,1.779.893.105,1.309.326,1.309.694,0,.7-.973.757-1.271.757a1.636,1.636,0,0,1-1.489-.771l-.046-.109L68.6,75.22l.046.109a2.457,2.457,0,0,0,2.1,1.433v.774Z" transform="translate(-63.301 -63.418)"/></g></svg>