<svg xmlns="http://www.w3.org/2000/svg" width="18.797" height="18.437" viewBox="0 0 18.797 18.437"><defs><style>.a{fill:#898888;}</style></defs><path class="a" d="M83.618.309a.309.309,0,1,0-.618,0V2.332h.618Zm0,0" transform="translate(-79.338)"/><path class="a" d="M334.618.309a.309.309,0,1,0-.618,0V2.332h.618Zm0,0" transform="translate(-319.263)"/><path class="a" d="M148.859,221.592a2.46,2.46,0,1,0-2.46-2.46A2.46,2.46,0,0,0,148.859,221.592Zm0,0" transform="translate(-139.939 -207.111)"/><path class="a" d="M0,154.313a1.62,1.62,0,0,0,1.6,1.62H17.2a1.62,1.62,0,0,0,1.6-1.62v-10.47H0Zm8.92-7.874a3.076,3.076,0,0,1,2.383,5.024l1.562,1.562a.309.309,0,1,1-.437.437L10.866,151.9a3.077,3.077,0,1,1-1.946-5.461Zm0,0" transform="translate(0 -137.497)"/><path class="a" d="M17.2,52.843H15.355v1.384a.309.309,0,0,1-.618,0V52.843H4.28v1.384a.309.309,0,0,1-.618,0V52.843H1.6A1.593,1.593,0,0,0,0,54.433v1.808H18.8V54.433a1.593,1.593,0,0,0-1.6-1.589Zm0,0" transform="translate(0 -50.512)"/></svg>