<svg xmlns="http://www.w3.org/2000/svg" width="24" height="19.009" viewBox="0 0 24 19.009"><defs><style>.a{fill:#898888;}</style></defs><path class="a" d="M45.283,97.53H37.8a2.484,2.484,0,0,1-2.481-2.481V92.992H27.173a1.681,1.681,0,0,0-1.681,1.681v8.782H45.283Zm0,0" transform="translate(-24.297 -88.633)"/><path class="a" d="M275.957,0h-9.436a1.061,1.061,0,0,0-1.061,1.061v.861h11.557V1.061A1.06,1.06,0,0,0,275.957,0Zm0,0" transform="translate(-253.017)"/><path class="a" d="M265.461,71.309v3.073a1.06,1.06,0,0,0,1.061,1.06h9.436a1.06,1.06,0,0,0,1.06-1.06V71.309H265.461Zm2.053,3.064a.877.877,0,1,1,.961-.962A.879.879,0,0,1,267.514,74.373Zm2.31,0a.877.877,0,1,1,.961-.962A.879.879,0,0,1,269.824,74.373Zm0,0" transform="translate(-253.017 -67.966)"/><path class="a" d="M0,346.531v1.317A1.449,1.449,0,0,0,1.449,349.3H20.322a1.449,1.449,0,0,0,1.449-1.449v-1.317Zm0,0" transform="translate(0 -330.288)"/></svg>