<svg xmlns="http://www.w3.org/2000/svg" width="24.461" height="23.671" viewBox="0 0 24.461 23.671"><defs><style>.a{fill:#505050;}</style></defs><g transform="translate(0 -9.881)"><path class="a" d="M23.33,25.627,17.194,21.61a1.535,1.535,0,0,0-1.267-.193c-.05.01-.1.021-.148.035l-5.421,1.592-.428-1.408a1.571,1.571,0,0,0,.217.017h0c.04,0,.08,0,.119-.007l.032,0c.041,0,.082,0,.124,0l3.908-.3a1.591,1.591,0,0,0,1.462-1.707,1.569,1.569,0,0,0-.277-.774l1.305-3.411a.644.644,0,1,0-1.2-.46L14.4,18.179a1.583,1.583,0,0,0-.31-.008l-3.411.264-2.528-2.1a1.584,1.584,0,0,0-.3-.2A1.657,1.657,0,0,0,5.368,18.02l1.848,6.075L3.663,17.089A1.941,1.941,0,0,0,.216,18.871L5.521,29.331a1.938,1.938,0,0,0,.677.741v2.837a.644.644,0,0,0,.644.644h7.186a.644.644,0,0,0,.644-.644V28.28l.435-.128a1.926,1.926,0,0,0,.974-.658l1.052,3.19A1.546,1.546,0,0,0,18.6,31.748h0a1.546,1.546,0,0,0,.485-.078l.076-.025a1.549,1.549,0,0,0,.986-1.956L19.165,26.7l2.425,1.587a1.543,1.543,0,0,0,.847.253h0a1.545,1.545,0,0,0,1.3-.7l.044-.068a1.549,1.549,0,0,0-.447-2.144Zm-9.946,6.637h-5.9v-1.9A1.938,1.938,0,0,0,7.8,30.3l5.587-1.64ZM24.461,12.47v1.539A2.592,2.592,0,0,1,21.871,16.6H20.305a2.592,2.592,0,0,1-2.589-2.589V12.47a2.592,2.592,0,0,1,2.589-2.589h1.566A2.592,2.592,0,0,1,24.461,12.47ZM.137,12.095a.644.644,0,0,1,1.276-.174L1.8,14.743a.644.644,0,0,1-.551.725.655.655,0,0,1-.088.006.644.644,0,0,1-.637-.557Zm4.3.839a2.228,2.228,0,1,1,2.228,2.228A2.231,2.231,0,0,1,4.441,12.934Z" transform="translate(0)"/></g></svg>