<svg xmlns="http://www.w3.org/2000/svg" width="15.554" height="15.553" viewBox="0 0 15.554 15.553"><defs><style>.a{fill:#a5a5a5;}</style></defs><path class="a" d="M10.769.682a.791.791,0,0,0-1.155.04L7.7,2.926a.215.215,0,0,1-.245.057L2.145.784l-.675.675L5.776,4.72a.215.215,0,0,1,.025.321L3.016,7.911a.217.217,0,0,1-.231.053L.2,6.991l-.2.2L2.182,8.837a.213.213,0,0,1,.034.032l.414.414a.215.215,0,0,1,.032.034l1.6,2.133.2-.2L3.529,8.707a.215.215,0,0,1,.059-.235L6.449,5.7a.212.212,0,0,1,.166-.06.216.216,0,0,1,.155.084L10,9.977l.672-.671L8.467,4a.215.215,0,0,1,.057-.245l2.2-1.919a.488.488,0,0,0,.04-.037A.791.791,0,0,0,10.769.682Zm0,0" transform="matrix(0.695, 0.719, -0.719, 0.695, 8.237, -0.313)"/></svg>