<svg xmlns="http://www.w3.org/2000/svg" width="15.104" height="27.618" viewBox="0 0 15.104 27.618"><defs><style>.a{fill:#898888;}</style></defs><g transform="translate(0 0)"><path class="a" d="M12.676,154H2.427A2.43,2.43,0,0,0,0,156.427v12.838a2.43,2.43,0,0,0,2.427,2.427v1.618H4.046v-1.618h7.012v1.618h1.618v-1.618a2.43,2.43,0,0,0,2.427-2.427V156.427A2.43,2.43,0,0,0,12.676,154ZM5.394,167.378H3.776v-9.062H5.394Zm5.934,0H9.709v-9.062h1.618Zm0,0" transform="translate(0 -145.693)"/><path class="a" d="M71.618,3.236h4.315V6.689h1.618V0H70V6.689h1.618Zm0,0" transform="translate(-66.224)"/></g></svg>