<svg xmlns="http://www.w3.org/2000/svg" width="21.797" height="31" viewBox="0 0 21.797 31"><defs><style>.a{fill:#fff;}</style></defs><g transform="translate(-76)"><g transform="translate(76 0.661)"><path class="a" d="M83.192,10.909a10.926,10.926,0,0,0,0,20.536,19.133,19.133,0,0,1-2.651-10.238A19.358,19.358,0,0,1,83.192,10.909Z" transform="translate(-76 -10.909)"/></g><g transform="translate(82.357)"><g transform="translate(0)"><path class="a" d="M185.541,0C183.393,0,181,5.072,181,10.959s2.393,10.9,4.541,10.9,4.541-5.011,4.541-10.9S187.689,0,185.541,0Z" transform="translate(-181)"/></g></g><g transform="translate(90.605 0.661)"><path class="a" d="M317.223,10.909a19.358,19.358,0,0,1,2.651,10.3,19.133,19.133,0,0,1-2.651,10.238,10.926,10.926,0,0,0,0-20.536Z" transform="translate(-317.223 -10.909)"/></g><g transform="translate(78.245 20.248)"><g transform="translate(0)"><path class="a" d="M127.176,339.662h-.155l3.36-5.242a12.736,12.736,0,0,1-3.713,2.426l-1.8,2.816h-2.228V337.8c-.3.021-.6.046-.908.046s-.607-.025-.908-.046v1.862h-2.228l-1.8-2.816a12.735,12.735,0,0,1-3.713-2.426l3.36,5.242h-.155a.908.908,0,1,0,0,1.816h.908v.969a2.728,2.728,0,0,0,2.725,2.725h3.633a2.728,2.728,0,0,0,2.725-2.725v-.969h.908a.908.908,0,1,0,0-1.816Z" transform="translate(-113.073 -334.42)"/></g></g></g></svg>