<svg xmlns="http://www.w3.org/2000/svg" width="29.269" height="28" viewBox="0 0 29.269 28"><defs><style>.a{fill:#fff;}</style></defs><g transform="translate(0 0)"><path class="a" d="M209.756,109.656a.488.488,0,0,0-.488-.488h-8.781a.488.488,0,0,0-.488.488v2.439h9.756Zm-7.317,1.463h-.976v-.976h.976Zm1.463,0h-.976v-.976h.976Zm1.463,0h-.976v-.976h.976Zm1.463,0h-.976v-.976h.976Zm1.463,0h-.976v-.976h.976Zm0,0" transform="translate(-190.244 -103.802)"/><path class="a" d="M240,69.168h.976v.976H240Zm0,0" transform="translate(-228.293 -65.753)"/><path class="a" d="M128.9,190.158l8.662,2.166v-2.668a.488.488,0,0,0-.488-.488H120.488a.488.488,0,0,0-.488.488v2.668l8.662-2.166A.49.49,0,0,1,128.9,190.158Zm0,0" transform="translate(-114.146 -179.9)"/><path class="a" d="M280,279.717v3.929l.976.976.976-.976v-3.929l-.976-.244Zm0,0" transform="translate(-266.341 -265.799)"/><path class="a" d="M84.6,230.936a.492.492,0,0,1,.237,0l10.439,2.61.5-1.307L84.72,229.473l-11.04,2.76.539,1.3Zm0,0" transform="translate(-70.086 -218.238)"/><path class="a" d="M340,69.168h.976v.976H340Zm0,0" transform="translate(-323.415 -65.753)"/><path class="a" d="M27.39,301.394c-.365.584-.609.942-1.052.942s-.686-.357-1.051-.941c-.39-.624-.878-1.4-1.879-1.4a1.624,1.624,0,0,0-.963.3l3.245-8.548-.314-.078-8.79-2.2v3.887a.488.488,0,0,1-.143.345l-1.463,1.463a.488.488,0,0,1-.69,0l-1.463-1.463a.488.488,0,0,1-.143-.345v-3.888l-9.089,2.272,3.772,9.115a1.84,1.84,0,0,0-1.518-.866c-1,0-1.487.776-1.875,1.4-.365.585-.61.941-1.049.941s-.683-.357-1.047-.941c-.39-.624-.874-1.4-1.876-1.4v.976c.439,0,.683.357,1.048.941.39.624.874,1.4,1.876,1.4s1.487-.776,1.876-1.4c.365-.585.61-.941,1.049-.941s.683.357,1.051.941c.39.624.875,1.4,1.876,1.4s1.487-.776,1.877-1.4c.365-.585.611-.941,1.049-.941s.686.357,1.051.941c.39.624.875,1.4,1.876,1.4s1.487-.776,1.877-1.4c.365-.585.611-.941,1.05-.941s.683.357,1.049.941c.39.625.875,1.4,1.877,1.4s1.488-.776,1.877-1.4c.365-.585.611-.941,1.05-.941s.687.357,1.052.942c.39.624.875,1.4,1.878,1.4s1.489-.776,1.879-1.4c.365-.585.612-.941,1.051-.941v-.976C28.265,299.995,27.78,300.77,27.39,301.394Zm-5.212-.869-.037.039Zm-1.2-2.774h.976v.976h-.976Zm0,1.463h.976v.976h-.976Zm-1.463,0h.976v.976h-.976Zm2.433,1.573-.041.053Zm-.209.288-.033.049Zm0,0" transform="translate(0 -275.311)"/><path class="a" d="M240.976,1.875a.508.508,0,0,1,.187-.39.374.374,0,0,1,.321-.084.241.241,0,0,1,.123.063,1.011,1.011,0,0,0,1.116.274,1.2,1.2,0,0,0,.692-1.106V-.832h-.976V.631a.5.5,0,0,1-.062.2.247.247,0,0,1-.08-.06,1.22,1.22,0,0,0-.609-.327,1.362,1.362,0,0,0-1.139.28A1.493,1.493,0,0,0,240,1.875v.22h.976Zm0,0" transform="translate(-228.293 0.832)"/><path class="a" d="M340.976,1.875a.508.508,0,0,1,.187-.39.374.374,0,0,1,.32-.084.241.241,0,0,1,.124.063,1.011,1.011,0,0,0,1.116.274,1.2,1.2,0,0,0,.692-1.106V-.832h-.976V.631a.5.5,0,0,1-.062.2.247.247,0,0,1-.08-.06,1.22,1.22,0,0,0-.609-.327,1.361,1.361,0,0,0-1.139.28A1.493,1.493,0,0,0,340,1.875v.22h.976Zm0,0" transform="translate(-323.415 0.832)"/></g></svg>