<svg xmlns="http://www.w3.org/2000/svg" width="40.305" height="40.305" viewBox="0 0 40.305 40.305"><defs><style>.a{fill:#dd4b39;}.b{fill:#fff;}</style></defs><path class="a" d="M20.152,0A20.152,20.152,0,1,1,0,20.152,20.212,20.212,0,0,1,20.152,0Z"/><g transform="translate(7.699 12.264)"><path class="b" d="M191.16,121.079v2.267h2.267v2.267H191.16v2.267h-2.267v-2.267h-2.267v-2.267h2.267v-2.267Z" transform="translate(-168.504 -116.591)"/><path class="b" d="M57.9,102.2a8.1,8.1,0,0,1,.126-11.336,7.771,7.771,0,0,1,8.439-1.637l1.134.63,1.26.882-2.015,2.015-.756-.5a4.81,4.81,0,0,0-5.92.756,5.288,5.288,0,0,0,0,7.305,4.87,4.87,0,0,0,7.053,0,4.02,4.02,0,0,0,1.134-2.015v-.252H63.816V95.522h7.179l.126.63v1.763a7.027,7.027,0,0,1-1.889,4.408A8.347,8.347,0,0,1,57.9,102.2Z" transform="translate(-55.644 -88.641)"/></g></svg>