<svg xmlns="http://www.w3.org/2000/svg" width="19.32" height="28.214" viewBox="0 0 19.32 28.214"><defs><style>.a{fill:#fff;}</style></defs><g transform="translate(-72 -40)"><g transform="translate(72 40)"><path class="a" d="M107.461,72.6h-4.167v2.269a2.1,2.1,0,0,1-.675,1.552,2.315,2.315,0,0,1-1.628.644H96.369a2.316,2.316,0,0,1-1.628-.643,2.1,2.1,0,0,1-.676-1.552V72.6H89.9a.865.865,0,0,0-.618.248.788.788,0,0,0-.261.588V95.2a.785.785,0,0,0,.261.588.865.865,0,0,0,.618.249h5.867a1.371,1.371,0,0,1-.034-.3V91.926a1.321,1.321,0,0,1,.438-.988,1.455,1.455,0,0,1,1.037-.417h2.949a1.459,1.459,0,0,1,1.037.417,1.323,1.323,0,0,1,.438.988v3.811a1.351,1.351,0,0,1-.035.3h5.867a.866.866,0,0,0,.618-.249.787.787,0,0,0,.261-.588V73.439a.787.787,0,0,0-.261-.588A.867.867,0,0,0,107.461,72.6ZM105.98,88.409a.524.524,0,0,1-.375.151H104.54a.525.525,0,0,1-.375-.151.477.477,0,0,1-.158-.357V87.037a.477.477,0,0,1,.158-.357.526.526,0,0,1,.375-.151h1.066a.526.526,0,0,1,.375.151.478.478,0,0,1,.158.357v1.016A.476.476,0,0,1,105.98,88.409Zm.158,2.69v1.016a.476.476,0,0,1-.158.357.523.523,0,0,1-.375.151H104.54a.524.524,0,0,1-.375-.151.476.476,0,0,1-.158-.357V91.1a.477.477,0,0,1,.158-.357.526.526,0,0,1,.375-.151h1.066a.526.526,0,0,1,.375.151A.478.478,0,0,1,106.139,91.1Zm-.158-6.752a.523.523,0,0,1-.375.151H104.54a.524.524,0,0,1-.375-.151.476.476,0,0,1-.158-.357V82.975a.476.476,0,0,1,.158-.357.525.525,0,0,1,.375-.151h1.066a.525.525,0,0,1,.375.151.477.477,0,0,1,.158.357V83.99A.476.476,0,0,1,105.98,84.347Zm0-4.062a.523.523,0,0,1-.375.151H104.54a.524.524,0,0,1-.375-.151.476.476,0,0,1-.158-.357V78.912a.477.477,0,0,1,.158-.357.526.526,0,0,1,.375-.151h1.066a.526.526,0,0,1,.375.151.478.478,0,0,1,.158.357v1.016A.476.476,0,0,1,105.98,80.285Zm0-4.062a.523.523,0,0,1-.375.151H104.54a.524.524,0,0,1-.375-.151.476.476,0,0,1-.158-.357V74.85a.477.477,0,0,1,.158-.357.526.526,0,0,1,.375-.151h1.066a.526.526,0,0,1,.375.151.478.478,0,0,1,.158.357v1.016A.476.476,0,0,1,105.98,76.222Zm-6.235,2.69a.477.477,0,0,1,.158-.357.526.526,0,0,1,.375-.151h1.066a.527.527,0,0,1,.375.151.478.478,0,0,1,.158.357v1.016a.475.475,0,0,1-.158.357.524.524,0,0,1-.375.151h-1.066a.523.523,0,0,1-.375-.151.476.476,0,0,1-.158-.357Zm0,4.063a.476.476,0,0,1,.158-.357.525.525,0,0,1,.375-.151h1.066a.526.526,0,0,1,.375.151.477.477,0,0,1,.158.357V83.99a.475.475,0,0,1-.158.357.524.524,0,0,1-.375.151h-1.066a.523.523,0,0,1-.375-.151.476.476,0,0,1-.158-.357Zm-6.551,5.435a.525.525,0,0,1-.375.151H91.754a.523.523,0,0,1-.375-.151.476.476,0,0,1-.158-.357V87.037a.476.476,0,0,1,.158-.357.525.525,0,0,1,.375-.151h1.066a.527.527,0,0,1,.375.151.479.479,0,0,1,.158.357v1.016A.477.477,0,0,1,93.194,88.409Zm.158,2.69v1.016a.477.477,0,0,1-.158.357.524.524,0,0,1-.375.151H91.754a.523.523,0,0,1-.375-.151.475.475,0,0,1-.158-.357V91.1a.476.476,0,0,1,.158-.357.525.525,0,0,1,.375-.151h1.066a.527.527,0,0,1,.375.151A.479.479,0,0,1,93.352,91.1Zm-.158-6.752a.525.525,0,0,1-.375.151H91.754a.523.523,0,0,1-.375-.151.475.475,0,0,1-.158-.357V82.975a.476.476,0,0,1,.158-.357.524.524,0,0,1,.375-.151h1.066a.526.526,0,0,1,.375.151.478.478,0,0,1,.158.357V83.99A.477.477,0,0,1,93.194,84.347Zm0-4.062a.524.524,0,0,1-.375.151H91.754a.523.523,0,0,1-.375-.151.475.475,0,0,1-.158-.357V78.912a.477.477,0,0,1,.158-.357.525.525,0,0,1,.375-.151h1.066a.527.527,0,0,1,.375.151.479.479,0,0,1,.158.357v1.016A.476.476,0,0,1,93.194,80.285Zm0-4.062a.524.524,0,0,1-.375.151H91.754a.523.523,0,0,1-.375-.151.475.475,0,0,1-.158-.357V74.85a.477.477,0,0,1,.158-.357.525.525,0,0,1,.375-.151h1.066a.527.527,0,0,1,.375.151.479.479,0,0,1,.158.357v1.016A.477.477,0,0,1,93.194,76.222Zm4.42,11.83a.477.477,0,0,1-.158.357.526.526,0,0,1-.375.151H96.016a.524.524,0,0,1-.375-.151.476.476,0,0,1-.158-.357V87.037a.477.477,0,0,1,.158-.357.526.526,0,0,1,.375-.151h1.066a.528.528,0,0,1,.375.151.479.479,0,0,1,.158.357Zm0-4.062a.476.476,0,0,1-.158.357.525.525,0,0,1-.375.151H96.016a.523.523,0,0,1-.375-.151.476.476,0,0,1-.158-.357V82.975a.476.476,0,0,1,.158-.357.525.525,0,0,1,.375-.151h1.066a.527.527,0,0,1,.375.151.478.478,0,0,1,.158.357Zm0-4.062a.476.476,0,0,1-.158.357.524.524,0,0,1-.375.151H96.016a.523.523,0,0,1-.375-.151.476.476,0,0,1-.158-.357V78.912a.477.477,0,0,1,.158-.357.526.526,0,0,1,.375-.151h1.066a.527.527,0,0,1,.375.151.479.479,0,0,1,.158.357Zm3.729,8.632h-1.065a.524.524,0,0,1-.375-.151.477.477,0,0,1-.158-.357V87.037a.477.477,0,0,1,.158-.357.526.526,0,0,1,.375-.151h1.065a.527.527,0,0,1,.375.151.478.478,0,0,1,.158.357v1.016a.476.476,0,0,1-.158.357A.525.525,0,0,1,101.344,88.56Z" transform="translate(-89.02 -67.822)"/><path class="a" d="M209.035,9.312a1.747,1.747,0,0,0,1.166.432h6.09a1.749,1.749,0,0,0,1.166-.432c.042-.035.085-.064.125-.1a1.76,1.76,0,0,0,.536-1.291V1.827a1.758,1.758,0,0,0-.536-1.291A1.76,1.76,0,0,0,216.292,0H210.2a1.76,1.76,0,0,0-1.291.536,1.76,1.76,0,0,0-.536,1.291v6.09a1.758,1.758,0,0,0,.536,1.291C208.95,9.248,208.994,9.277,209.035,9.312ZM210,4.78V2.03a.411.411,0,0,1,.406-.406h.812a.411.411,0,0,1,.406.406V4.06h3.248V2.03a.412.412,0,0,1,.406-.406h.812a.411.411,0,0,1,.406.406V7.714a.411.411,0,0,1-.406.406h-.812a.412.412,0,0,1-.406-.406V5.684h-3.247v2.03a.412.412,0,0,1-.406.406H210.4A.412.412,0,0,1,210,7.714V4.78Z" transform="translate(-203.587 0)"/></g></g></svg>