<svg xmlns="http://www.w3.org/2000/svg" width="28.272" height="28.236" viewBox="0 0 28.272 28.236"><defs><style>.a{fill:#fff;}</style></defs><g transform="translate(0 0)"><g transform="translate(0 7.807)"><path class="a" d="M10.1,148.861l2.049-1.078L10.1,146.7l1.235-1.958-2.314.091.091-2.314-1.958,1.235-1.078-2.049L5,143.758l-1.958-1.235.091,2.314-2.314-.091L2.049,146.7,0,147.782l2.049,1.078L.814,150.819l2.314-.091-.091,2.314L5,151.807l1.078,2.049,1.078-2.049,1.958,1.235-.091-2.314,2.314.091Zm-4.025,1.958a3.037,3.037,0,1,1,3.037-3.037A3.037,3.037,0,0,1,6.074,150.819Z" transform="translate(0 -141.709)"/></g><g transform="translate(0 24.923)"><path class="a" d="M25.437,452.659a2.946,2.946,0,0,1-3.759,0,4.587,4.587,0,0,0-5.664,0,2.945,2.945,0,0,1-3.759,0,4.426,4.426,0,0,0-2.832-.979,4.426,4.426,0,0,0-2.832.979,2.787,2.787,0,0,1-1.879.678,2.787,2.787,0,0,1-1.879-.678A4.426,4.426,0,0,0,0,451.68v1.656a2.787,2.787,0,0,1,1.879.678,4.426,4.426,0,0,0,2.832.979,4.426,4.426,0,0,0,2.832-.979,2.787,2.787,0,0,1,1.879-.678,2.787,2.787,0,0,1,1.879.678,4.587,4.587,0,0,0,5.664,0,2.945,2.945,0,0,1,3.759,0,4.587,4.587,0,0,0,5.664,0,2.788,2.788,0,0,1,1.88-.678V451.68A4.426,4.426,0,0,0,25.437,452.659Z" transform="translate(0 -451.68)"/></g><g transform="translate(2.343 0)"><g transform="translate(0 0)"><path class="a" d="M67.5,6.359a9.041,9.041,0,0,0-4.375-4.392L63.515.894,61.958.327,61.568,1.4A9.123,9.123,0,0,0,50.682,7.093l-.334.919.961.179A14.254,14.254,0,0,1,55.723,9.8l.193.109.222,0h.084a8.6,8.6,0,0,1,2.151.274l-3.859,10.6-.293,0a22.793,22.793,0,0,0-11.792,3.264,7.27,7.27,0,0,1,1.442.832c.484.341.535.376.927.376s.442-.036.927-.376a6.234,6.234,0,0,1,7.57,0c.484.341.535.376.927.376s.442-.036.927-.376a6.235,6.235,0,0,1,7.57,0c.484.34.535.376.927.376s.443-.036.927-.376a7.271,7.271,0,0,1,1.442-.832,22.748,22.748,0,0,0-9.767-3.175L59.93,10.744a8.6,8.6,0,0,1,1.888,1.228l.169.144.218.041a14.255,14.255,0,0,1,4.414,1.606l.851.481.334-.919A9.051,9.051,0,0,0,67.5,6.359Z" transform="translate(-42.429 -0.327)"/></g></g></g></svg>