<svg xmlns="http://www.w3.org/2000/svg" width="27.436" height="28" viewBox="0 0 27.436 28"><defs><style>.a{fill:#fff;}</style></defs><g transform="translate(0 0)"><circle class="a" cx="1.17" cy="1.17" r="1.17" transform="translate(8.827 10.451)"/><circle class="a" cx="1.17" cy="1.17" r="1.17" transform="translate(16.262 15.202)"/><path class="a" d="M32,15.546l-.425-.579a1.827,1.827,0,0,1-.017-2.129l.413-.585a1.826,1.826,0,0,0-.631-2.662l-.631-.339a1.818,1.818,0,0,1-.935-1.911l.12-.706a1.822,1.822,0,0,0-1.721-2.123l-.717-.029A1.829,1.829,0,0,1,25.783,3.17l-.2-.688A1.819,1.819,0,0,0,23.11,1.317l-.66.281a1.818,1.818,0,0,1-2.077-.459L19.9.606a1.819,1.819,0,0,0-2.731.023l-.47.539a1.824,1.824,0,0,1-2.071.488l-.666-.275a1.827,1.827,0,0,0-2.456,1.2l-.189.694A1.812,1.812,0,0,1,9.661,4.616l-.717.04A1.822,1.822,0,0,0,7.257,6.808l.132.706a1.819,1.819,0,0,1-.907,1.922l-.625.35a1.821,1.821,0,0,0-.585,2.668l.425.579a1.827,1.827,0,0,1,.017,2.129l-.413.585a1.826,1.826,0,0,0,.631,2.662l.631.339A1.818,1.818,0,0,1,7.5,20.658l-.12.706A1.822,1.822,0,0,0,9.1,23.486l.717.029a1.829,1.829,0,0,1,1.675,1.314l.2.688a1.819,1.819,0,0,0,2.473,1.165l.66-.281a1.818,1.818,0,0,1,2.077.459l.476.534a1.819,1.819,0,0,0,2.731-.023l.47-.539a1.824,1.824,0,0,1,2.071-.488l.666.275a1.827,1.827,0,0,0,2.456-1.2l.189-.694a1.812,1.812,0,0,1,1.652-1.337l.717-.04a1.822,1.822,0,0,0,1.687-2.152l-.132-.706a1.819,1.819,0,0,1,.907-1.922l.625-.35A1.819,1.819,0,0,0,32,15.546ZM12.088,11.622a2.823,2.823,0,1,1,2.823,2.823A2.821,2.821,0,0,1,12.088,11.622ZM15.456,18.9a.69.69,0,0,1-.97.092h0a.69.69,0,0,1-.092-.97L21.8,9.1a.689.689,0,1,1,1.061.878Zm6.9.293a2.823,2.823,0,1,1,2.823-2.823A2.821,2.821,0,0,1,22.352,19.195Z" transform="translate(-4.919 0)"/></g></svg>