<svg id="insta" xmlns="http://www.w3.org/2000/svg" viewBox="0 0 34.014 34.77">
  <defs>
    <style>
      .cls-1 {
        fill: #fff;
      }
    </style>
  </defs>
  <path id="Path_450" data-name="Path 450" class="cls-1" d="M42.887,36.069H28.526A10.005,10.005,0,0,1,18.7,26.243V11.126A10.005,10.005,0,0,1,28.526,1.3H42.887a10.005,10.005,0,0,1,9.826,9.826V26.243a10.005,10.005,0,0,1-9.826,9.826m0-2.268a6.862,6.862,0,0,0,5.291-2.268,6.862,6.862,0,0,0,2.268-5.291V11.126a6.862,6.862,0,0,0-2.268-5.291,6.862,6.862,0,0,0-5.291-2.268H28.526a6.862,6.862,0,0,0-5.291,2.268,6.862,6.862,0,0,0-2.268,5.291V26.243a6.862,6.862,0,0,0,2.268,5.291A6.862,6.862,0,0,0,28.526,33.8Z" transform="translate(-18.7 -1.3)"/>
  <path id="Path_451" data-name="Path 451" class="cls-1" d="M37.941,11.542a9.07,9.07,0,0,1-18.141,0,9.191,9.191,0,0,1,9.07-9.07c4.535-.756,9.07,3.779,9.07,9.07M28.87,5.5a5.962,5.962,0,0,0-6.047,6.047,6.047,6.047,0,1,0,12.094,0A5.962,5.962,0,0,0,28.87,5.5" transform="translate(-11.486 5.843)"/>
  <path id="Path_452" data-name="Path 452" class="cls-1" d="M26.435,4.268a2,2,0,0,1-2.268,2.268A2,2,0,0,1,21.9,4.268,2,2,0,0,1,24.168,2a2,2,0,0,1,2.268,2.268" transform="translate(2.287 3.291)"/>
</svg>
