<svg xmlns="http://www.w3.org/2000/svg" width="41.448" height="41.448" viewBox="0 0 41.448 41.448"><defs><style>.a{fill:#cb2027;}.b{fill:#f1f2f2;}</style></defs><circle class="a" cx="20.724" cy="20.724" r="20.724" transform="translate(0 0)"/><g transform="translate(10.713 9.084)"><path class="b" d="M40.684,43.26c-1.567-.121-2.225-.9-3.454-1.644-.675,3.543-1.5,6.94-3.945,8.714-.755-5.355,1.108-9.378,1.973-13.647-1.475-2.483.177-7.479,3.288-6.248,3.828,1.514-3.314,9.231,1.481,10.195,5.006,1.006,7.05-8.686,3.945-11.839-4.486-4.552-13.057-.1-12,6.413.257,1.593,1.9,2.077.658,4.275-2.871-.636-3.727-2.9-3.617-5.919.178-4.941,4.44-8.4,8.715-8.88,5.407-.605,10.481,1.985,11.181,7.071.788,5.74-2.441,11.956-8.222,11.509Z" transform="translate(-29 -24.593)"/></g></svg>