<svg xmlns="http://www.w3.org/2000/svg" width="40.928" height="40.928" viewBox="0 0 40.928 40.928"><defs><style>.a{fill:#55acee;}.b{fill:#f1f2f2;}</style></defs><circle class="a" cx="20.464" cy="20.464" r="20.464" transform="translate(0 0)"/><g transform="translate(9.157 12.413)"><path class="b" d="M48.945,36.322a9.759,9.759,0,0,1-2.81.769,4.9,4.9,0,0,0,2.151-2.706,9.792,9.792,0,0,1-3.106,1.187,4.9,4.9,0,0,0-8.335,4.462,13.885,13.885,0,0,1-10.082-5.111,4.9,4.9,0,0,0,1.514,6.531,4.857,4.857,0,0,1-2.215-.612c0,.021,0,.042,0,.062a4.894,4.894,0,0,0,3.924,4.8,4.911,4.911,0,0,1-2.209.085,4.9,4.9,0,0,0,4.569,3.4A9.874,9.874,0,0,1,25.1,51.206a13.911,13.911,0,0,0,21.415-11.72c0-.212,0-.423-.014-.633a9.919,9.919,0,0,0,2.441-2.532Z" transform="translate(-25.103 -34.028)"/></g></svg>