<svg xmlns="http://www.w3.org/2000/svg" viewBox="0 0 37 25.615">
  <defs>
    <style>
      .cls-1 {
        fill: #fff;
      }
    </style>
  </defs>
  <path id="youtube" class="cls-1" d="M30.738,0H6.262A6.244,6.244,0,0,0,0,6.262V19.354a6.244,6.244,0,0,0,6.262,6.262H30.738A6.244,6.244,0,0,0,37,19.354V6.262A6.244,6.244,0,0,0,30.738,0ZM25.729,13.035l-11.1,5.692a.377.377,0,0,1-.4-.114c0-.057-.057-.057-.057-.114V7.115a.269.269,0,0,1,.285-.285c.057,0,.114,0,.114.057l11.1,5.692a.327.327,0,0,1,.114.4c.057,0,0,.057-.057.057Z"/>
</svg>
