<svg xmlns="http://www.w3.org/2000/svg" width="23.417" height="19.905" viewBox="0 0 23.417 19.905"><defs><style>.a{fill:#535557;}</style></defs><g transform="translate(0 0)"><g transform="translate(0 0)"><path class="a" d="M22.246,35.989H1.171A1.171,1.171,0,0,0,0,37.16V51.21a1.171,1.171,0,0,0,1.171,1.171H12.2a5.852,5.852,0,0,0,11.216-2.342V37.16A1.171,1.171,0,0,0,22.246,35.989ZM.781,37.16a.39.39,0,0,1,.39-.39H22.246a.39.39,0,0,1,.39.39v1.951H.781Zm0,2.732H22.636v1.561H.781ZM11.735,50.569c0,.045.009.089.014.134.018.162.042.322.074.482l.014.07c.025.117.052.231.084.345H1.171a.39.39,0,0,1-.39-.39V42.233H22.636V47.12c-.067-.117-.139-.229-.213-.34-.012-.018-.025-.034-.037-.052q-.126-.183-.267-.356l-.078-.1c-.107-.126-.217-.25-.334-.367-.012-.012-.025-.024-.039-.036-.107-.106-.22-.207-.335-.3-.032-.027-.063-.053-.1-.078-.129-.1-.261-.2-.4-.3l-.036-.023c-.128-.085-.261-.165-.4-.24l-.111-.061c-.148-.078-.3-.153-.453-.219l-.029-.011c-.147-.061-.3-.117-.45-.165l-.124-.039c-.164-.049-.329-.094-.5-.128l-.017,0c-.164-.033-.331-.057-.5-.078l-.133-.014c-.175-.016-.352-.027-.532-.027a5.861,5.861,0,0,0-5.854,5.854C11.708,50.217,11.719,50.394,11.735,50.569Zm5.827,4.543h0a5.077,5.077,0,0,1-4.771-3.364c-.035-.095-.068-.19-.1-.286-.021-.072-.039-.145-.056-.219s-.039-.156-.055-.234c-.019-.1-.032-.2-.046-.3-.008-.059-.019-.117-.025-.178-.016-.164-.025-.328-.025-.494a5.074,5.074,0,1,1,5.074,5.074Z" transform="translate(0 -35.989)"/><rect class="a" width="0.781" height="0.781" transform="translate(1.171 4.293)"/><rect class="a" width="0.781" height="0.781" transform="translate(2.732 4.293)"/><rect class="a" width="0.781" height="0.781" transform="translate(4.293 4.293)"/><rect class="a" width="0.781" height="0.781" transform="translate(5.854 4.293)"/><rect class="a" width="0.781" height="0.781" transform="translate(7.415 4.293)"/><rect class="a" width="0.781" height="0.781" transform="translate(8.976 4.293)"/><rect class="a" width="0.781" height="0.781" transform="translate(10.537 4.293)"/><rect class="a" width="0.781" height="0.781" transform="translate(12.099 4.293)"/><rect class="a" width="0.781" height="0.781" transform="translate(13.66 4.293)"/><rect class="a" width="0.781" height="0.781" transform="translate(15.221 4.293)"/><rect class="a" width="0.781" height="0.781" transform="translate(16.782 4.293)"/><rect class="a" width="0.781" height="0.781" transform="translate(18.343 4.293)"/><rect class="a" width="0.781" height="0.781" transform="translate(19.904 4.293)"/><rect class="a" width="0.781" height="0.781" transform="translate(21.465 4.293)"/><rect class="a" width="2.732" height="0.781" transform="translate(1.561 14.05)"/><rect class="a" width="5.854" height="0.781" transform="translate(5.074 14.05)"/><rect class="a" width="5.074" height="0.781" transform="translate(1.561 12.489)"/><rect class="a" width="3.122" height="0.781" transform="translate(7.806 12.489)"/><path class="a" d="M337.977,275.708a.39.39,0,0,0-.459.306l-.4,1.989-.4-1.99a.39.39,0,0,0-.77.127c0,.009,0,.018.005.026l.781,3.9a.39.39,0,0,0,.765,0l.781-3.9A.39.39,0,0,0,337.977,275.708Z" transform="translate(-319.556 -263.992)"/><path class="a" d="M393.522,275.986c0,.009,0,.018-.005.026l-.4,1.99-.4-1.99a.39.39,0,1,0-.77.127c0,.009,0,.018.005.026l.781,3.9a.39.39,0,0,0,.765,0l.781-3.9a.39.39,0,0,0-.76-.179Z" transform="translate(-372.824 -263.992)"/><path class="a" d="M281.561,275.989h-.781a.781.781,0,0,0-.781.781v3.122a.781.781,0,0,0,.781.781h.781a.781.781,0,0,0,.781-.781v-.39a.39.39,0,0,0-.781,0v.39h-.781V276.77h.781v.39a.39.39,0,1,0,.781,0v-.39A.78.78,0,0,0,281.561,275.989Z" transform="translate(-266.34 -264.281)"/></g></g></svg>